<svg width="113" height="113" viewBox="0 0 113 113" fill="none" xmlns="http://www.w3.org/2000/svg">
<path d="M11.0572 0.331154C7.1287 1.19189 3.37675 4.12724 1.58906 7.74677C-0.110359 11.1677 -6.90261e-06 7.63642 -6.90261e-06 56.5001C-6.90261e-06 105.364 -0.110359 101.833 1.58906 105.253C3.39882 108.917 7.1287 111.808 11.1676 112.669C13.4629 113.155 99.5371 113.155 101.832 112.669C107.107 111.566 111.565 107.107 112.669 101.833C113.154 99.5372 113.154 13.463 112.669 11.1677C111.565 5.89287 107.107 1.43467 101.832 0.331154C99.6033 -0.132324 13.2422 -0.132324 11.0572 0.331154ZM101.766 7.74677C103.333 8.4751 104.525 9.66689 105.253 11.2339L105.827 12.4698V56.5001V100.53L105.253 101.766C104.525 103.333 103.333 104.525 101.766 105.253L100.53 105.827H56.5H12.4697L11.2338 105.253C9.66679 104.525 8.47499 103.333 7.74667 101.766L7.17284 100.53L7.10663 56.9415C7.06249 9.09306 6.97421 12.2491 8.38671 10.1304C9.18124 8.9165 10.3951 8.01162 11.9842 7.48193C13.0877 7.08466 15.2285 7.08466 56.8311 7.12881L100.53 7.17295L101.766 7.74677Z" fill="white"/>
<path d="M23.218 21.651C22.7104 21.9158 22.0703 22.4234 21.7834 22.8207L21.2979 23.5049V33.5689V43.633L21.9379 44.4496C23.4387 46.4359 26.1312 46.3477 27.6762 44.273C28.1176 43.6992 28.1396 43.324 28.2059 38.5568L28.2721 33.4586L36.6588 41.8453L45.0234 50.21L47.4953 47.716L49.9893 45.2441L41.5143 36.7691L33.0172 28.2721L38.3361 28.2059C43.324 28.1396 43.6992 28.1176 44.273 27.6762C45.4428 26.8154 45.7959 26.1092 45.7959 24.7188C45.7959 23.3283 45.4428 22.6221 44.273 21.7613C43.6771 21.3199 43.3682 21.2979 33.9221 21.2316C24.3656 21.1875 24.1449 21.1875 23.218 21.651Z" fill="white"/>
<path d="M69.1904 21.4965C67.1158 22.4014 66.4537 25.2043 67.9104 26.9479C68.9477 28.1617 69.4332 28.25 74.9729 28.25H80.0049L71.5078 36.7471L63.0107 45.2441L65.5047 47.716L67.9766 50.21L76.3412 41.8453L84.7279 33.4586L84.7941 38.5568C84.8604 43.324 84.8824 43.6992 85.3238 44.273C86.1846 45.4428 86.8908 45.7959 88.2812 45.7959C89.6717 45.7959 90.3779 45.4428 91.2387 44.273C91.7021 43.6771 91.7021 43.4344 91.7021 33.591V23.5049L91.1945 22.7986C90.9297 22.4234 90.2676 21.8937 89.76 21.651C88.833 21.2096 88.502 21.1875 79.3207 21.1875C71.9492 21.2096 69.698 21.2758 69.1904 21.4965Z" fill="white"/>
<path d="M36.6367 71.1768L28.3604 79.4531L28.25 74.399C28.1397 69.7201 28.0955 69.2787 27.6762 68.727C26.8155 67.5572 26.1092 67.2041 24.7188 67.2041C23.3284 67.2041 22.6221 67.5572 21.7614 68.727C21.32 69.3229 21.2979 69.6318 21.2317 79.1441C21.1655 90.2014 21.1434 90.0027 22.7987 91.1062L23.7035 91.7021H33.6793C43.4123 91.7021 43.6772 91.6801 44.2731 91.2387C45.4428 90.3779 45.7959 89.6717 45.7959 88.2812C45.7959 86.8908 45.4428 86.1846 44.2731 85.3238C43.6992 84.8824 43.3241 84.8604 38.3362 84.7941L33.0172 84.7279L41.4922 76.2529L49.9893 67.7559L47.5616 65.3281C46.2373 64.0039 45.0897 62.9004 45.0235 62.9004C44.9573 62.9004 41.1832 66.6303 36.6367 71.1768Z" fill="white"/>
<path d="M65.4385 65.3281L63.0107 67.7559L71.5078 76.2529L79.9828 84.7279L74.6639 84.7941C69.676 84.8604 69.3008 84.8824 68.727 85.3238C67.5572 86.1846 67.2041 86.8908 67.2041 88.2812C67.2041 89.6717 67.5572 90.3779 68.727 91.2387C69.3229 91.6801 69.5877 91.7021 79.3207 91.7021H89.2965L90.2014 91.1062C91.8566 90.0027 91.8346 90.2014 91.7684 79.1441C91.7021 69.6318 91.6801 69.3229 91.2387 68.727C90.3779 67.5572 89.6717 67.2041 88.2812 67.2041C86.8908 67.2041 86.1846 67.5572 85.3238 68.727C84.9045 69.2787 84.8604 69.7201 84.75 74.399L84.6396 79.4531L76.3633 71.1768C71.8168 66.6303 68.0428 62.9004 67.9766 62.9004C67.9104 62.9004 66.7627 64.0039 65.4385 65.3281Z" fill="white"/>
</svg>
