<svg width="101" height="94" viewBox="0 0 101 94" fill="none" xmlns="http://www.w3.org/2000/svg">
<path fill-rule="evenodd" clip-rule="evenodd" d="M79.6144 0.118785C74.3645 0.819985 69.5585 3.85549 65.8672 8.80123C61.687 14.4025 59.3131 20.6644 58.5731 28.042L58.4193 29.5775H46.6327C33.6977 29.5775 33.4744 29.5984 30.5581 31.0831L29.0695 31.8413L27.5053 31.0969C22.8004 28.8576 19.1296 28.8542 14.7868 31.0851C13.1167 31.9428 12.4066 32.5155 10.4385 34.5908C7.93377 37.232 6.26225 39.6073 5.87079 41.0817C4.91009 44.7007 6.51399 48.5033 9.72365 50.2155C11.162 50.9828 11.5279 51.0737 13.12 51.0592C15.6372 51.0363 16.9341 50.3907 18.9443 48.1591C20.714 46.1948 22.2223 44.8103 22.5926 44.8103C23.0468 44.8103 22.645 49.4322 22.0332 51.2434C21.7287 52.1451 20.0531 55.6479 18.3098 59.0276L15.1403 65.1724L13.1153 63.0995C10.6815 60.6077 9.46863 59.9551 7.25605 59.9473C2.17995 59.9296 -1.05672 65.7468 1.26576 70.7134C2.31028 72.9472 8.40109 78.814 13.3779 82.3802C21.9339 88.5109 32.2183 92.5167 42.4968 93.7215C45.6673 94.093 52.7155 94.0928 55.8822 93.721C69.9525 92.0685 82.836 85.6946 93.4112 75.1535C96.2486 72.3251 97.029 71.2207 97.5731 69.2624C98.0606 67.5079 97.9258 65.9266 97.1344 64.1181C95.9708 61.4587 93.7916 59.9527 91.1068 59.9527C88.9381 59.9527 87.6977 60.6116 85.3478 63.0113C83.7491 64.6439 83.3787 64.9183 83.2726 64.5478C82.906 63.2673 81.0091 51.3884 81.0091 50.373C81.0091 49.7234 81.2136 48.3441 81.4637 47.3082C82.4425 43.2511 82.3286 40.3211 81.0189 35.8738C80.4852 34.0609 80.3055 32.9747 80.3081 31.5742C80.313 29.0564 80.6258 28.6124 80.9922 30.6033C81.5872 33.838 83.181 36.2099 85.5944 37.4524C86.5976 37.9688 87.094 38.0538 89.1107 38.0538C91.211 38.0538 91.6013 37.9806 92.8067 37.3615C95.6353 35.9082 97.5789 32.9253 97.8427 29.6325C98.0871 26.584 97.2673 22.1277 95.9001 19.0728C95.4594 18.0878 95.1012 16.9807 95.1041 16.612C95.1116 15.6417 95.8365 14.1398 96.9101 12.8706C98.6725 10.7866 100.5 7.90863 100.5 7.21653C100.5 6.82367 100.246 6.28364 99.881 5.90184L99.2617 5.2542L94.8908 5.24093L90.5197 5.22742L89.8152 4.07931C87.9939 1.11113 83.9473 -0.46006 79.6144 0.118785ZM83.9604 4.39477C84.5975 4.59796 85.3741 4.97166 85.6862 5.22545L86.2538 5.68686L84.8643 6.10011C81.6081 7.06837 79.2302 8.21354 76.195 10.2756C72.523 12.7704 68.1697 16.9989 64.8569 21.2887C64.1287 22.2316 63.4994 22.8972 63.4581 22.7677C63.3493 22.4262 64.7405 18.4023 65.5631 16.6788C67.3274 12.9821 70.5617 8.82702 73.0882 7.01137C76.625 4.46996 80.9388 3.43167 83.9604 4.39477ZM94.6292 9.32553C94.6292 9.40243 94.2141 9.983 93.7068 10.6154C92.19 12.5052 91.5076 14.1924 91.3883 16.3454C91.2895 18.1284 91.3322 18.3328 92.2375 20.3993C93.0444 22.2417 94.0189 25.8177 93.7911 26.1005C93.7082 26.2032 84.6759 28.5864 84.625 28.5188C84.6055 28.493 84.308 27.8437 83.9639 27.0759C83.6199 26.3081 82.9751 25.3462 82.531 24.9382C80.4532 23.0294 77.5082 24.0537 76.7645 26.9435C76.5975 27.5916 76.5391 29.3377 76.6065 31.6619C76.7006 34.9149 76.7899 35.5692 77.3605 37.1939C78.309 39.8936 78.4431 43.4045 77.7127 46.4151C76.92 49.6836 77.0139 51.2498 78.5295 60.0121C79.2629 64.2518 79.8095 67.8654 79.7447 68.0423C79.6341 68.344 76.2923 70.9284 76.188 70.793C76.1617 70.7586 74.6339 68.0219 72.7933 64.7112C70.9524 61.4005 69.1684 58.3783 68.8286 57.995C67.1515 56.1034 64.8602 55.998 62.391 57.6987C57.0148 61.4015 43.59 61.4221 38.3446 57.7356C36.043 56.1182 35.9418 56.072 34.6845 56.06C32.4823 56.0393 32.049 56.4275 26.2914 63.5754L21.0467 70.0864L20.0891 69.3587C17.8629 67.6671 17.6762 68.6747 21.6314 61.0258C25.93 52.7132 26.2722 51.7026 26.5401 46.5301C26.7773 41.9537 26.867 41.423 27.7239 39.528C28.675 37.4246 30.5205 35.4471 30.5205 36.5313C30.5205 37.1725 32.3632 40.7965 33.4657 42.3229C40.7382 52.3938 55.1613 50.769 60.4588 39.2823C61.4477 37.1376 62.2226 34.2935 62.2226 32.8078C62.2226 31.2403 67.651 23.579 71.8239 19.2568C77.3786 13.5035 83.17 10.1135 88.564 9.45796C90.5887 9.21202 94.6292 9.12357 94.6292 9.32553ZM83.1493 16.4945C82.8771 16.7311 82.5888 17.2793 82.5087 17.7131C82.3868 18.3731 82.4796 18.6237 83.077 19.2487C83.7286 19.9305 83.9266 19.9956 85.3461 19.9956C86.684 19.9956 86.9817 19.9113 87.4775 19.3924C88.1907 18.6465 88.2261 17.5881 87.5672 16.712C87.1208 16.1179 86.9388 16.0646 85.3624 16.0646C84.0713 16.0646 83.5213 16.1714 83.1493 16.4945ZM93.7618 30.7905C93.5551 31.6172 91.9923 33.3118 91.0025 33.7823C89.7938 34.3567 88.4316 34.3586 87.2321 33.7879C86.3529 33.3693 85.5232 32.6189 85.7308 32.43C85.8346 32.3356 93.1862 30.3888 93.6091 30.3436C93.7662 30.3269 93.8306 30.5153 93.7618 30.7905ZM24.8183 34.2272L26.0434 34.7906L25.4815 35.5623C24.8538 36.4239 23.476 39.3592 23.4758 39.8351C23.4756 40.0041 23.3311 40.1422 23.1548 40.1422C22.9784 40.1422 22.0572 40.5488 21.1078 41.0458C19.7868 41.7372 18.8832 42.4797 17.2603 44.2066C14.8312 46.7913 14.4907 47.0215 13.0961 47.0215C11.6826 47.0215 10.5639 46.3242 9.90165 45.0302C8.86887 43.0123 9.42589 41.5716 12.6778 37.8497C14.145 36.1704 16.031 34.7768 17.8396 34.0356C19.6211 33.3056 23.0165 33.399 24.8183 34.2272ZM58.2305 33.8385C58.2305 34.0201 58.033 34.7689 57.7918 35.5026C56.1346 40.5419 52.4861 43.9696 47.8576 44.8349C43.2934 45.6882 38.5658 43.2986 35.7271 38.7037C34.8461 37.2774 33.6839 34.2935 33.9152 34.0515C34.2914 33.6582 36.852 33.556 46.8999 33.5336C56.2401 33.513 58.2305 33.5665 58.2305 33.8385ZM35.6046 60.6689C37.5901 62.2531 41.3713 63.6476 45.1896 64.2031C47.5192 64.5422 53.319 64.5404 55.4849 64.2002C59.1637 63.6223 62.6378 62.3889 64.8349 60.8811C65.1737 60.6485 65.6077 60.521 65.7991 60.5979C66.1642 60.7445 72.922 72.7627 72.744 72.9489C72.3558 73.3553 67.2203 75.6599 64.8774 76.4793C52.6481 80.7565 39.2923 79.8457 27.5412 73.9337C24.5398 72.4236 24.3743 72.3033 24.6788 71.8564C25.8901 70.0778 34.2245 60.0431 34.4905 60.0431C34.6721 60.0431 35.1734 60.3246 35.6046 60.6689ZM8.69157 64.4058C9.02033 64.6412 10.1299 65.6984 11.1573 66.7551C19.231 75.0567 29.3562 80.4621 40.5008 82.4203C44.1501 83.0615 50.4524 83.2915 54.121 82.9171C66.5132 81.6525 77.7975 76.2004 86.7615 67.1467C89.6536 64.2252 90.008 63.9741 91.2364 63.9741C91.928 63.9741 92.284 64.1653 93.0131 64.9279C93.8498 65.8033 93.9247 65.9922 93.9247 67.2251C93.9247 68.9203 93.3999 69.7206 90.3753 72.6374C81.7713 80.9343 72.0538 86.3319 61.5454 88.6507C41.9572 92.9732 22.2192 86.9343 7.43546 72.0954C6.16386 70.8193 4.95589 69.4373 4.75111 69.0243C3.96396 67.4383 4.57452 64.9534 5.91775 64.2758C6.72839 63.8672 8.02512 63.9279 8.69157 64.4058Z" fill="white"/>
</svg>
