<svg width="135" height="94" viewBox="0 0 135 94" fill="none" xmlns="http://www.w3.org/2000/svg">
<path d="M48.675 0.274803C47.0927 0.60541 44.7929 1.76253 43.4682 2.90128C38.0958 7.43793 37.691 15.5929 42.5851 20.5336C46.3936 24.3723 51.9684 25.309 56.8256 22.9029C58.9782 21.8193 61.0205 19.7622 62.0692 17.6132C63.0811 15.5561 63.3939 14.2337 63.3939 12.1031C63.3939 9.99094 63.0811 8.63179 62.1244 6.68489C59.7142 1.7809 54.1026 -0.900684 48.675 0.274803ZM54.1026 6.57468C56.2184 7.6216 57.3776 9.4032 57.4695 11.8276C57.5615 13.8113 57.0648 15.1337 55.7769 16.4194C54.3418 17.8337 53.3483 18.2561 51.3428 18.2561C49.9261 18.2561 49.5397 18.1826 48.675 17.7786C44.9217 15.997 43.8546 11.093 46.5592 8.09914C48.0679 6.42775 49.5213 5.82164 51.674 5.93184C52.5939 5.96857 53.2011 6.13387 54.1026 6.57468Z" fill="white"/>
<path d="M76.3281 21.7458C73.4947 22.5172 70.9741 23.9682 64.2034 28.7069C63.0443 29.515 61.9588 29.8272 61.0389 29.6252C60.7629 29.5701 58.7207 28.9456 56.4944 28.2661C41.7571 23.6927 42.8059 23.9498 39.1261 24.0967C37.6726 24.1518 35.888 24.3722 34.876 24.5927C25.8791 26.5579 13.8096 34.1251 11.1786 39.4699C10.1667 41.527 10.7003 43.5474 12.4665 44.4106C14.0856 45.1821 16.2934 44.9249 21.721 43.3086C28.2709 41.3617 31.1779 40.7556 33.9193 40.7556C35.9064 40.7556 35.8144 40.5903 34.8577 42.8127C31.8955 49.6085 18.7037 67.8653 3.13844 86.6731C0.673026 89.6485 0.397047 90.1261 0.525837 91.2281C0.636229 92.1648 1.0594 92.826 1.96093 93.4321C2.84406 94.0566 4.16876 93.9097 7.27813 92.8628C16.6062 89.722 24.9408 83.9731 33.7721 74.606L36.072 72.1632H37.2679C39.0525 72.1632 42.1987 72.4938 43.4314 72.806C46.136 73.5223 46.3752 73.908 46.228 77.3978C46.1728 78.7937 45.8784 81.1997 45.5288 83.1834C45.1425 85.4609 44.9401 87.2608 44.9217 88.6016C44.9033 90.4934 44.9401 90.6955 45.4553 91.724C46.7064 94.2403 49.227 94.7178 51.6556 92.9179C55.4825 90.071 60.9285 80.3916 62.4372 73.7244C62.9339 71.4836 63.0627 69.904 62.8419 68.5816C62.1428 64.3756 57.7271 60.8491 49.411 57.8369C48.3438 57.4512 47.4975 57.0471 47.5159 56.9369C47.5527 56.8451 48.0311 56.0553 48.583 55.1921C50.2205 52.6942 51.4532 49.7371 52.3547 46.1004C52.5939 45.1821 52.1156 45.1821 56.4024 46.0637C60.027 46.7983 62.3268 47.0555 64.3506 46.9637C65.8225 46.8902 66.2273 46.7983 67.2024 46.3024C70.2198 44.7596 74.9114 39.7638 78.7383 33.9966C82.5653 28.2293 83.4116 24.9233 81.5533 22.8111C80.431 21.5254 78.5544 21.158 76.3281 21.7458ZM74.7274 29.4048C72.6116 32.968 67.3496 39.1944 65.2154 40.6821C64.5162 41.1597 64.4426 41.178 62.6028 41.0678C60.7445 40.9576 55.9793 40.0577 52.5203 39.1944C50.2757 38.625 49.4662 38.6067 48.675 39.1393C47.6631 39.8373 47.4055 40.3515 47.0191 42.5923C46.1912 47.4412 45.1793 49.7738 41.6835 54.9717C36.6975 62.3919 32.521 67.5531 27.1486 72.9162C23.5425 76.5161 20.2859 79.2712 17.2686 81.3099C15.2447 82.6691 13.1473 83.9548 13.0737 83.8813C13.0369 83.8446 13.8464 82.7977 14.8584 81.5303C26.9278 66.5061 36.3479 53.1533 39.6597 46.3575C41.0212 43.5841 41.518 41.9495 41.5364 40.2964C41.5547 38.1475 40.7268 36.8067 38.7398 35.7965C37.2127 35.0251 35.8144 34.8231 32.9074 34.9333C30.2028 35.0251 28.2709 35.3741 24.3704 36.4394C23.1009 36.7883 21.9786 37.0822 21.8866 37.0822C21.4819 37.0638 26.1735 34.217 28.3445 33.1517C33.0546 30.8374 36.8447 29.8272 40.3956 29.9742L42.5115 30.0476L51.1588 32.766L59.8062 35.4843H61.646C63.0811 35.4843 63.7435 35.3924 64.6818 35.0802C66.1169 34.5843 66.5217 34.3455 69.3735 32.2884C71.6549 30.6538 74.7826 28.6334 75.0402 28.6334C75.1322 28.6334 74.985 28.9824 74.7274 29.4048ZM46.3384 62.998C49.2086 63.9715 52.1524 65.2755 53.8818 66.3408C55.3721 67.2775 56.8808 68.7469 57.0464 69.4632C57.5247 71.3734 55.0225 78.2794 52.0972 83.0915C51.3428 84.3405 51.3244 84.2854 51.7292 81.9895C51.8764 81.0712 52.0604 79.0875 52.1156 77.5814C52.2075 75.1754 52.1707 74.6427 51.8396 73.3203C51.6188 72.4754 51.2324 71.4285 50.9748 70.9693C49.7605 68.9122 47.0927 67.4245 43.505 66.8367C42.7507 66.7265 41.8491 66.5612 41.4812 66.5061L40.8004 66.3776L42.3091 64.3205C43.1186 63.1817 43.8546 62.2634 43.9466 62.245C44.0202 62.245 45.0873 62.594 46.3384 62.998Z" fill="white"/>
<path d="M115.113 0.157301C114.206 0.346795 112.887 1.01002 112.128 1.66272C109.049 4.263 108.817 8.93717 111.622 11.7691C113.805 13.9693 117 14.5062 119.784 13.1271C121.018 12.506 122.189 11.3269 122.79 10.0952C123.37 8.91612 123.549 8.15814 123.549 6.93696C123.549 5.72631 123.37 4.94728 122.821 3.83137C121.44 1.02055 118.223 -0.516454 115.113 0.157301ZM118.223 3.76821C119.436 4.36827 120.101 5.38943 120.153 6.77905C120.206 7.91601 119.921 8.67399 119.183 9.41091C118.361 10.2215 117.791 10.4637 116.642 10.4637C115.83 10.4637 115.608 10.4215 115.113 10.1899C112.961 9.16878 112.35 6.35795 113.9 4.64198C114.765 3.68399 115.598 3.33658 116.831 3.39975C117.359 3.4208 117.707 3.51555 118.223 3.76821Z" fill="white"/>
<path d="M130.962 12.4639C129.338 12.9061 127.894 13.7377 124.013 16.4538C123.349 16.917 122.726 17.096 122.199 16.9802C122.041 16.9486 120.87 16.5907 119.594 16.2012C111.147 13.5798 111.748 13.7272 109.639 13.8114C108.806 13.843 107.783 13.9693 107.203 14.0957C102.047 15.2221 95.1287 19.5594 93.6207 22.6229C93.0407 23.802 93.3465 24.96 94.3589 25.4548C95.2869 25.8969 96.5523 25.7495 99.6633 24.8231C103.417 23.7072 105.084 23.3598 106.655 23.3598C107.794 23.3598 107.741 23.2651 107.193 24.5389C105.495 28.434 97.9338 38.8983 89.0123 49.6784C87.5992 51.3838 87.441 51.6575 87.5148 52.2892C87.5781 52.8261 87.8206 53.205 88.3374 53.5525C88.8435 53.9104 89.6028 53.8262 91.385 53.2261C96.7316 51.4259 101.509 48.1308 106.571 42.7618L107.889 41.3617H108.574C109.597 41.3617 111.4 41.5512 112.107 41.7302C113.657 42.1407 113.794 42.3618 113.71 44.362C113.678 45.1621 113.51 46.5412 113.309 47.6782C113.088 48.9836 112.972 50.0152 112.961 50.7837C112.951 51.8681 112.972 51.9839 113.267 52.5734C113.984 54.0157 115.429 54.2894 116.821 53.2577C119.014 51.6259 122.136 46.078 123.001 42.2565C123.285 40.9722 123.359 40.0668 123.233 39.3089C122.832 36.8981 120.301 34.8768 115.534 33.1503C114.923 32.9292 114.438 32.6976 114.448 32.6345C114.469 32.5818 114.743 32.1291 115.06 31.6344C115.998 30.2026 116.705 28.5077 117.222 26.4233C117.359 25.8969 117.085 25.8969 119.542 26.4022C121.619 26.8233 122.937 26.9707 124.097 26.9181C124.941 26.876 125.173 26.8233 125.732 26.5391C127.461 25.6548 130.15 22.7913 132.344 19.4857C134.537 16.1801 135.022 14.2852 133.957 13.0745C133.314 12.3376 132.238 12.127 130.962 12.4639ZM130.045 16.8539C128.832 18.8962 125.816 22.465 124.593 23.3177C124.192 23.5914 124.15 23.6019 123.095 23.5388C122.03 23.4756 119.299 22.9598 117.317 22.465C116.03 22.1386 115.566 22.1281 115.113 22.4334C114.533 22.8334 114.385 23.1282 114.163 24.4125C113.689 27.1918 113.109 28.5288 111.105 31.508C108.247 35.7611 105.854 38.7193 102.774 41.7933C100.707 43.8567 98.8407 45.4358 97.1113 46.6044C95.9512 47.3834 94.7491 48.1203 94.7069 48.0782C94.6858 48.0571 95.1498 47.4571 95.7298 46.7307C102.648 38.1193 108.047 30.4658 109.945 26.5707C110.726 24.981 111.01 24.0441 111.021 23.0966C111.031 21.8649 110.557 21.0964 109.418 20.5174C108.543 20.0752 107.741 19.9594 106.075 20.0226C104.525 20.0752 103.417 20.2753 101.182 20.8859C100.454 21.0859 99.8109 21.2543 99.7582 21.2543C99.5262 21.2438 102.215 19.612 103.46 19.0014C106.159 17.675 108.332 17.096 110.367 17.1802L111.58 17.2223L116.536 18.7804L121.493 20.3384H122.547C123.37 20.3384 123.749 20.2858 124.287 20.1068C125.11 19.8226 125.342 19.6857 126.976 18.5067C128.284 17.5697 130.077 16.4117 130.224 16.4117C130.277 16.4117 130.193 16.6117 130.045 16.8539ZM113.773 36.1085C115.418 36.6665 117.106 37.4139 118.097 38.0245C118.951 38.5614 119.816 39.4036 119.911 39.8142C120.185 40.909 118.751 44.8673 117.074 47.6255C116.642 48.3414 116.631 48.3098 116.863 46.9939C116.947 46.4675 117.053 45.3305 117.085 44.4673C117.137 43.0882 117.116 42.7829 116.926 42.0249C116.8 41.5407 116.578 40.9406 116.431 40.6774C115.735 39.4983 114.206 38.6456 112.149 38.3087C111.717 38.2456 111.2 38.1508 110.989 38.1193L110.599 38.0456L111.464 36.8665C111.928 36.2138 112.35 35.6874 112.402 35.6769C112.444 35.6769 113.056 35.8769 113.773 36.1085Z" fill="white"/>
</svg>
