<svg width="95" height="86" viewBox="0 0 95 86" fill="none" xmlns="http://www.w3.org/2000/svg">
<path d="M18.75 1V85M1.5 1V15.8235C1.5 17.7702 1.94619 19.6978 2.81308 21.4962C3.67997 23.2947 4.9506 24.9289 6.55241 26.3053C8.15422 27.6818 10.0558 28.7737 12.1487 29.5187C14.2416 30.2636 16.4847 30.6471 18.75 30.6471C21.0153 30.6471 23.2584 30.2636 25.3513 29.5187C27.4442 28.7737 29.3458 27.6818 30.9476 26.3053C32.5494 24.9289 33.82 23.2947 34.6869 21.4962C35.5538 19.6978 36 17.7702 36 15.8235V1M76.25 40.5294C71.675 40.5294 67.2874 38.4471 64.0524 34.7405C60.8174 31.0339 59 26.0066 59 20.7647C59 15.5228 60.8174 10.4955 64.0524 6.78895C67.2874 3.08235 71.675 1 76.25 1C80.825 1 85.2126 3.08235 88.4476 6.78895C91.6826 10.4955 93.5 15.5228 93.5 20.7647C93.5 26.0066 91.6826 31.0339 88.4476 34.7405C85.2126 38.4471 80.825 40.5294 76.25 40.5294ZM76.25 40.5294V85" stroke="white" stroke-width="2" stroke-linecap="round" stroke-linejoin="round"/>
</svg>
