<svg width="93" height="84" viewBox="0 0 93 84" fill="none" xmlns="http://www.w3.org/2000/svg">
<path fill-rule="evenodd" clip-rule="evenodd" d="M19.7662 0.285663C18.3812 0.771612 16.7368 2.07912 14.6344 4.36646C11.677 7.58374 10.9317 8.10008 9.25061 8.096C7.97953 8.09305 6.79273 7.33907 5.24849 5.55378C4.543 4.73789 3.67202 3.94831 3.31279 3.7991C1.52133 3.05464 0.0500187 5.45423 0.951603 7.65018C1.36809 8.66403 4.19403 11.6523 5.43072 12.3861C8.24801 14.058 11.4526 13.9083 14.0942 11.9815C14.5894 11.6203 15.899 10.3126 17.0046 9.07583C19.8283 5.91637 20.3014 5.53632 21.5526 5.42226C23.0789 5.28325 23.8029 5.8463 27.1078 9.74183C29.3734 12.4124 31.5518 13.5988 34.1469 13.5755C36.8724 13.551 38.7692 12.375 41.8485 8.80145C42.8459 7.64406 44.0914 6.44132 44.689 6.05877C46.7518 4.73744 47.7831 5.21953 51.0075 9.01279C53.3067 11.7178 54.1998 12.4913 55.6892 13.0682C57.3845 13.7249 58.7558 13.8437 60.2135 13.4605C62.2561 12.9235 64.0856 11.5305 66.6688 8.54544C70.3873 4.24854 71.4294 4.30228 75.4963 8.99964C77.7916 11.6509 79.0153 12.6323 80.7257 13.1934C82.7922 13.8711 85.335 13.4743 87.2769 12.1709C87.8325 11.7979 89.1528 10.5262 90.2107 9.345C92.4735 6.8182 92.7316 6.17986 92.1541 4.53562C91.898 3.80704 91.6378 3.45873 91.1628 3.20884C90.1159 2.65781 89.3649 3.06213 87.5443 5.15649C85.4539 7.56107 84.4511 8.17922 82.8354 8.05949C81.151 7.93432 80.3771 7.37558 77.8703 4.47371C76.3552 2.71972 75.3186 1.72832 74.269 1.02944C72.7993 0.0509666 72.7903 0.0482447 70.8877 0.0482447H68.9801L67.2864 1.10835C65.908 1.97095 65.2119 2.61382 63.5477 4.56147C61.0988 7.4275 60.0222 8.18534 58.4094 8.17899C56.9293 8.17287 55.9569 7.50823 53.7985 5.02724C51.5408 2.43196 50.499 1.44736 49.2011 0.682042C48.2485 0.120128 47.9219 0.0484708 46.3258 0.0496046C44.7873 0.0507384 44.3607 0.137816 43.3963 0.648482C41.8829 1.44986 40.7141 2.49432 38.5736 4.95853C36.4413 7.41322 35.4272 8.09373 33.9013 8.09373C32.4298 8.09373 31.3847 7.42183 29.4897 5.25717C26.0442 1.32128 24.3692 0.128745 22.1209 0.0101491C21.2752 -0.0345229 20.3802 0.0702399 19.7662 0.285663ZM19.5862 23.704C17.6238 24.5323 16.7337 25.292 13.5266 28.8755C11.563 31.0696 10.8067 31.551 9.32246 31.5519C7.74005 31.5528 6.76734 30.9585 5.1012 28.9725C3.62106 27.2083 3.04108 26.8215 2.18055 27.0249C1.34937 27.2213 0.4991 28.5199 0.500001 29.5918C0.500901 30.773 0.980594 31.6381 2.59902 33.3769C5.24129 36.2162 8.0078 37.4228 10.6848 36.9035C12.6193 36.5282 14.1761 35.4384 16.5396 32.805C19.501 29.5056 20.487 28.7335 21.7385 28.7335C22.615 28.7335 24.0384 29.8671 25.9178 32.0624C29.1674 35.8579 30.8341 36.8883 33.7212 36.8863C36.6181 36.8844 38.4831 35.7599 41.6533 32.1036C43.8033 29.624 45.0016 28.7335 46.1882 28.7335C47.3257 28.7335 48.0225 29.2798 50.7817 32.3343C54.1352 36.0466 55.5557 36.8969 58.4038 36.8969C61.1739 36.8969 62.9685 35.7869 66.1985 32.0755C69.9418 27.7741 71.2741 27.7605 74.8358 31.9871C76.9311 34.4735 77.6839 35.1903 79.0351 35.9851C81.3061 37.3212 84.0677 37.3316 86.3002 36.0126C87.5361 35.2822 91.2379 31.3778 91.5734 30.4506C92.2787 28.5013 91.2464 26.4659 89.5527 26.4659C88.9068 26.4659 88.2863 27.0251 85.6044 30.024C84.0856 31.7225 81.9829 32.103 80.254 30.9921C79.8789 30.7512 78.8298 29.6814 77.9227 28.6149C75.8334 26.1584 74.6657 25.0493 73.4007 24.3201C71.9335 23.4743 70.6014 23.2171 69.2657 23.5223C67.1137 24.0137 65.4955 25.2124 62.9431 28.2056C60.5873 30.968 59.5425 31.6832 57.8681 31.6791C56.4278 31.6757 55.4036 30.9204 53.0429 28.1201C51.4537 26.2351 50.5701 25.3806 49.4416 24.6382C48.0634 23.7312 47.8194 23.647 46.3258 23.5627C43.6383 23.4112 41.9898 24.4382 38.2319 28.6049C35.9218 31.1664 34.8765 31.7941 33.2261 31.612C31.8576 31.4608 31.0979 30.8644 28.7045 28.0623C27.6288 26.8031 26.4023 25.4725 25.9788 25.1058C24.0907 23.4697 21.4914 22.8996 19.5862 23.704ZM19.7662 47.1488C18.0574 47.9068 17.239 48.5844 14.6466 51.3865C11.9003 54.355 11.1681 54.8641 9.62389 54.8786C8.08829 54.8929 7.12495 54.2945 5.3839 52.2441C3.42714 49.9393 2.35575 49.7012 1.2271 51.3201C0.369274 52.5505 0.454624 53.5405 1.56328 55.2181C2.46793 56.587 4.21906 58.3859 5.36175 59.12C7.35417 60.4 9.98924 60.6864 12.1135 59.8542C13.637 59.2572 14.9817 58.1082 17.4513 55.2938C20.1809 52.1831 21.7028 51.474 23.3618 52.5398C23.7469 52.7872 25.0396 54.163 26.2345 55.597C29.2178 59.1776 31.0086 60.2665 33.9253 60.2728C36.813 60.2792 38.8284 59 42.2032 55.0188C43.8067 53.1273 45.235 52.0899 46.2358 52.0899C47.2944 52.0899 48.5631 53.0772 50.6209 55.502C54.0171 59.5039 55.6366 60.4193 58.9355 60.2021C61.6064 60.0261 63.1998 58.8884 66.9513 54.4782C68.3002 52.8924 69.1964 52.2838 70.3976 52.1378C71.6271 51.9881 72.4748 52.604 74.8718 55.3877C78.3109 59.3812 79.7557 60.2921 82.6989 60.322C84.6281 60.3418 85.8284 59.9393 87.4483 58.7297C88.9299 57.6233 91.7911 54.6081 92.1973 53.7253C93.031 51.9133 92.0441 49.5955 90.4388 49.5955C89.7553 49.5955 89.3847 49.9019 87.476 52.0457C85.3986 54.3786 84.7318 54.7995 83.1021 54.8061C81.4336 54.8129 80.6082 54.2738 78.494 51.7967C75.0137 47.7184 73.0642 46.4862 70.4285 46.6993C68.3627 46.8662 66.3832 48.1982 63.6225 51.2792C60.9537 54.2575 60.2918 54.6977 58.4802 54.6977C56.7769 54.6977 56.121 54.2466 53.7686 51.4577C50.6952 47.8141 48.9371 46.6476 46.5185 46.6476C44.0438 46.6476 42.2902 47.7828 38.9154 51.5697C36.6372 54.1262 35.6209 54.8065 34.0814 54.8065C32.5285 54.8065 31.5464 54.1196 29.2196 51.4053C26.1198 47.7894 24.8062 46.8912 22.3772 46.727C21.2006 46.6474 20.7222 46.7247 19.7662 47.1488ZM69.2841 70.3317C67.2594 70.8877 65.8781 71.9567 63.2378 75.0112C62.2552 76.1479 61.121 77.3223 60.7173 77.6212C59.6446 78.4148 58.3491 78.6702 57.2363 78.3067C56.0795 77.9287 55.2248 77.1776 53.1375 74.7048C50.2804 71.3202 48.5989 70.2308 46.2313 70.2308C43.943 70.2308 42.1076 71.4451 38.7006 75.213C36.5234 77.6209 35.7475 78.1745 34.3207 78.3373C32.5586 78.5387 31.2356 77.6336 28.5894 74.4168C25.9689 71.2313 23.9272 70.0712 21.3357 70.2948C19.1641 70.4823 17.5507 71.5694 14.7015 74.7647C11.991 77.8044 11.1438 78.396 9.51225 78.3892C7.95883 78.3826 7.07759 77.8602 5.57045 76.0529C4.02135 74.1948 3.60954 73.859 2.88118 73.859C1.52421 73.859 0.557261 75.1994 0.731924 76.8384C0.840503 77.8575 1.59804 79.0529 3.34358 80.9602C5.57981 83.4034 8.07479 84.3771 10.7561 83.8532C12.9081 83.4328 14.5285 82.2358 17.4816 78.8856C20.2792 75.7116 21.5121 75.1424 23.2589 76.2187C23.8175 76.5629 24.9658 77.6797 25.9203 78.8074C26.8437 79.8981 27.9356 81.1196 28.3469 81.5215C30.1057 83.2405 32.8532 84.2576 34.8884 83.9433C37.1396 83.5954 39.1718 82.1487 41.9273 78.9323C44.1682 76.3166 45.2128 75.5853 46.5141 75.7211C47.6867 75.8436 48.3139 76.357 50.7003 79.1477C53.7048 82.6618 55.2044 83.6063 58.0637 83.7857C61.0535 83.973 62.8001 82.9389 66.2013 78.9672C68.298 76.5189 69.4283 75.6706 70.5836 75.6781C71.8069 75.686 72.6774 76.3502 75.1241 79.1432C78.5039 83.0015 80.3035 84.0288 83.2272 83.7689C85.9139 83.5301 87.7893 82.3383 90.5058 79.1434C91.8919 77.5132 92.0178 77.2917 92.1015 76.3343C92.2187 74.9941 91.8366 74.0449 90.9723 73.5284C89.9141 72.8959 89.3523 73.1814 87.3597 75.3642C85.1944 77.7361 84.1877 78.3897 82.6989 78.3897C81.1552 78.3897 80.1423 77.708 78.0172 75.2391C74.3037 70.9242 71.9479 69.6006 69.2841 70.3317Z" fill="white"/>
</svg>
