<svg width="53" height="105" viewBox="0 0 53 105" fill="none" xmlns="http://www.w3.org/2000/svg">
<path d="M21.0101 0.18045C13.975 0.755096 11.4741 1.63758 10.0914 3.99772L9.5221 4.98282L9.42044 11.0371C9.31878 16.8246 9.29844 17.1324 8.85112 17.9533C8.24114 19.1437 7.26516 20.2108 6.26885 20.8265C3.58492 22.5094 1.9583 24.4591 1.04332 27.045L0.575666 28.379L0.514667 51.8778C0.474002 68.7887 0.514667 75.7254 0.67733 76.6079C1.18565 79.2759 2.97494 81.8618 5.65887 83.8115C7.08217 84.8376 8.38347 86.1716 8.95278 87.1977C9.27811 87.8134 9.33911 88.5933 9.42044 93.9498C9.5221 99.6962 9.54244 100.045 9.96943 100.846C10.5794 101.995 11.8807 103.083 13.2633 103.616C15.8253 104.601 21.9048 105.135 28.5129 104.971C37.5407 104.745 41.038 103.842 42.7053 101.359C43.4779 100.209 43.5796 99.3678 43.5796 93.9908C43.5796 90.8919 43.6609 88.4291 43.8032 87.8955C44.1489 86.541 45.2062 85.4328 47.0768 84.4887C49.6591 83.1752 50.9197 81.8207 51.9363 79.2759L52.4243 78.0445L52.4853 53.7248C52.526 36.1777 52.4853 29.0562 52.3227 28.1738C51.7737 25.3211 50.1877 23.1046 47.2598 21.0933C45.3079 19.7799 44.3522 18.8358 43.9456 17.9123C43.7829 17.4813 43.6609 15.429 43.5796 11.0371C43.4779 5.12648 43.4576 4.73655 43.0306 3.95667C42.4409 2.84843 41.4446 1.90438 40.2653 1.3913C37.866 0.303589 27.4353 -0.332619 21.0101 0.18045ZM35.1414 3.75144C38.5574 4.14138 39.7977 4.55184 40.123 5.39328C40.245 5.70113 40.3263 8.30754 40.3263 11.5502C40.3263 16.4757 40.367 17.3171 40.7126 18.4048L41.099 19.6567H26.5203H11.9417L12.2874 18.2612C12.5924 17.1324 12.6534 15.9421 12.6534 11.386L12.6737 5.86531L13.243 5.29066C13.5683 4.98282 14.3003 4.57236 14.8696 4.38766C15.8049 4.12086 19.6682 3.58727 22.3318 3.36151C24.4464 3.19733 32.2135 3.42308 35.1414 3.75144ZM45.3689 23.7408C46.8938 24.5822 47.9105 25.67 48.6424 27.2297L49.1711 28.379L49.2321 51.8778C49.2728 69.3428 49.2321 75.6638 49.0491 76.5053C48.5611 78.8244 47.2191 80.6714 45.4298 81.5129C44.4945 81.9439 44.4132 81.9439 26.9067 81.9439H9.31878L8.05814 81.2461C6.49251 80.4046 5.08955 78.927 4.3779 77.3673L3.82892 76.1974V52.3908V28.5842L4.3779 27.4144C4.96755 26.1215 6.26885 24.6028 7.32616 23.946C8.91212 22.9404 8.62746 22.9609 26.9067 23.002L44.0879 23.043L45.3689 23.7408ZM40.8753 86.2947C40.4483 87.2183 40.428 87.6492 40.3263 93.2931L40.2246 99.3268L39.6553 99.8194C38.293 100.989 33.7588 101.625 26.5 101.625C18.9769 101.625 14.524 100.969 13.2633 99.6962L12.6737 99.1216L12.6534 93.6009C12.6534 89.0448 12.5924 87.8545 12.2874 86.7052L11.9417 85.3302H26.622H41.3226L40.8753 86.2947Z" fill="white"/>
<path d="M24.0194 43.4633C19.6072 44.0174 14.8086 46.2749 12.1247 49.0455C10.9454 50.2564 10.8437 50.8721 11.6164 51.6725C12.4907 52.555 13.0397 52.4729 14.4223 51.262C18.1636 47.9578 22.5148 46.3776 27.2117 46.6033C31.5019 46.8291 34.8771 48.1836 38.232 51.0363C39.8383 52.3908 40.5297 52.596 41.3226 51.9188C41.5463 51.7341 41.8106 51.2825 41.8716 50.9337C41.9733 50.3795 41.8716 50.1538 41.2413 49.4355C39.635 47.65 36.3004 45.5361 33.6368 44.5921C30.6682 43.5454 26.8863 43.0939 24.0194 43.4633Z" fill="white"/>
<path d="M24.7717 49.9485C22.5758 50.4001 21.9658 50.5642 20.9085 50.9952C19.3429 51.652 17.1672 53.1091 16.3539 54.0531C15.561 54.9356 15.5203 55.7976 16.2319 56.4954C17.0452 57.3368 17.7569 57.1521 19.3632 55.736C21.0711 54.2378 24.1007 53.1091 26.5 53.1091C28.8993 53.1091 31.9289 54.2378 33.6368 55.736C35.2431 57.1521 35.9548 57.3368 36.7681 56.4954C37.6017 55.6744 37.4594 54.8535 36.2801 53.7042C34.4095 51.8777 31.5832 50.5027 28.7163 50.0512C27.4556 49.8254 25.585 49.7844 24.7717 49.9485Z" fill="white"/>
<path d="M24.7107 56.6185C23.5111 56.8443 21.5185 57.973 20.7865 58.8145C20.2782 59.3891 20.1765 59.6559 20.2782 60.169C20.5628 61.6261 21.9048 61.9134 23.3078 60.8463C25.341 59.266 27.8216 59.3481 29.8143 61.031C30.9936 62.0366 32.5998 61.3798 32.5998 59.9022C32.5998 59.3686 32.4169 59.0402 31.8679 58.5066C30.0786 56.8238 27.354 56.0849 24.7107 56.6185Z" fill="white"/>
</svg>
