<svg width="83" height="94" viewBox="0 0 83 94" fill="none" xmlns="http://www.w3.org/2000/svg">
<path fill-rule="evenodd" clip-rule="evenodd" d="M70.1272 0.788201C63.1189 1.95906 62.2644 2.32534 61.4027 4.52822C60.7996 6.0695 60.8787 6.93159 62.2174 13.3967L63.6997 20.5581L51.3686 33.7246L39.0376 46.891L36.63 46.3383C32.9016 45.4819 32.8701 45.4275 34.0307 41.9045C35.3932 37.7713 35.0778 35.4643 32.4684 30.4793C31.298 28.2428 30.2675 26.2332 30.1787 26.0135C30.0894 25.7933 30.9836 25.6135 32.1656 25.6135C35.6668 25.6135 36.7993 23.3449 35.1506 19.6349C33.7595 16.5052 32.5746 16.056 25.1723 15.8539C17.5206 15.6446 15.6632 16.2073 14.3658 19.1261C13.291 21.5445 13.3992 22.3698 15.0189 24.0992C16.1571 25.3146 16.8592 25.6135 18.5754 25.6135H20.7132L23.707 31.1989C25.3538 34.2706 26.6963 37.2429 26.6905 37.8045C26.6847 38.3655 26.2737 39.7799 25.7773 40.9471L24.8744 43.0697L21.2096 43.3655C16.1402 43.7748 12.0504 45.8984 8.77521 49.8223C5.39817 53.8675 4.18563 57.3272 4.18563 62.9152C4.18563 68.2432 5.42631 72.0733 8.24099 75.4362L10.1202 77.6805L5.30986 82.9157C0.996852 87.6105 0.5 88.3457 0.5 90.0393C0.5 91.2371 0.855172 92.3069 1.47041 92.9638C2.4253 93.9834 3.08761 94 42.4704 94H82.5V91.6453C82.5 89.8357 82.2244 88.9959 81.3088 88.0188C80.1351 86.765 79.9968 86.7469 71.6047 86.7469H63.0917V84.7305V82.7142L68.5503 82.5069C74.5576 82.2795 75.9759 81.763 78.7625 78.7871C81.0211 76.376 82.1701 73.5509 82.4054 69.8311C82.7664 64.1213 80.6324 60.0611 75.8352 57.3314C74.2224 56.4133 72.4965 55.6585 72.0001 55.6544C69.6905 55.6336 69.6915 54.8415 72.0059 51.3781C74.5659 47.548 75.7071 44.525 75.7071 41.5756C75.7071 40.4529 74.3786 32.8863 72.7551 24.7597C71.1321 16.6337 69.9234 9.85666 70.0704 9.7002C70.2175 9.54322 72.1462 9.10648 74.3568 8.72932C78.8658 7.95997 80.074 6.99324 80.074 4.15364C80.074 2.5849 78.63 0.227639 77.6688 0.227639C77.434 0.227639 76.9512 0.134903 76.596 0.0214438C76.2403 -0.0914975 73.3296 0.253025 70.1272 0.788201ZM77.9691 3.13199C78.5592 4.08578 78.5354 4.35984 77.7823 5.30689C77.0768 6.19384 75.6872 6.57877 70.1398 7.42583C64.9496 8.2185 63.2727 8.31589 62.9903 7.84133C62.411 6.86786 62.5366 6.13374 63.5003 4.8629C64.2392 3.88839 65.3489 3.52936 69.9293 2.78488C76.5645 1.70572 77.1011 1.72852 77.9691 3.13199ZM68.5576 13.1796L69.2912 16.2881H67.0025H64.7138L64.1344 13.606C63.4741 10.5524 63.7574 10.0924 66.3072 10.0789C67.7579 10.0717 67.8565 10.2069 68.5576 13.1796ZM32.561 19.3567C33.3946 20.2467 33.9793 21.4212 33.9793 22.2061V23.5412H25.3426C19.2722 23.5412 16.5327 23.3563 16.1237 22.9195C15.2071 21.9409 15.4381 20.4959 16.7326 19.1142C17.8801 17.8884 18.1625 17.8423 24.5328 17.8423H31.1428L32.561 19.3567ZM70.9361 24.8364C71.6479 28.2557 72.2481 31.7077 72.2704 32.5076C72.3092 33.9023 72.2262 33.9556 70.2679 33.8028L68.2252 33.6438L67.6328 30.5353C67.3072 28.8256 66.6104 25.3752 66.084 22.8672L65.1272 18.3076L67.3843 18.4635L69.642 18.6195L70.9361 24.8364ZM64.7749 25.9472L65.1145 28.3656L55.572 38.5645L46.0289 48.7639L43.8736 48.237C42.6878 47.9474 41.778 47.5179 41.8518 47.2822C42.0803 46.5501 63.8016 23.2604 64.1276 23.3982C64.297 23.4697 64.5881 24.6167 64.7749 25.9472ZM30.2825 30.2446C33.2408 35.6316 33.6149 38.1645 32.0317 42.0941C31.4358 43.5727 30.8119 44.7809 30.6445 44.7794C30.4771 44.7778 29.544 44.5405 28.5707 44.2519L26.8011 43.7271L27.7609 41.0311C28.3635 39.3369 28.6119 37.7568 28.4285 36.7792C28.1786 35.4446 25.9108 30.9285 23.3921 26.7492L22.6715 25.5539L25.2766 25.713L27.8817 25.8726L30.2825 30.2446ZM66.6648 35.0685C67.659 40.4166 67.6473 41.9765 66.5969 44.3022C65.2096 47.3729 61.4959 52.5542 60.6914 52.5423C59.6011 52.5257 49.0018 49.5975 48.6418 49.2131C48.3434 48.895 64.9767 30.7943 65.5672 30.7943C65.7342 30.7943 66.2276 32.7174 66.6648 35.0685ZM73.463 37.5941C74.4077 42.6376 73.4101 46.289 69.6687 51.4802L67.4775 54.5208L65.5275 53.9924C64.4547 53.7017 63.5769 53.2411 63.5769 52.9692C63.5769 52.6977 64.5667 51.1015 65.7759 49.4234C68.6905 45.3793 69.5537 42.7428 69.2039 38.9541L68.9292 35.9751H71.0443C73.0254 35.9751 73.1792 36.0777 73.463 37.5941ZM40.5534 49.4027C49.0799 51.6584 59.768 54.4737 64.3047 55.658C74.0889 58.2126 75.9143 59.0006 78.0443 61.591C80.1007 64.0923 80.5592 65.4284 80.5592 68.9234C80.5592 73.7042 78.481 77.4287 74.6348 79.5414C72.9269 80.4792 71.4514 80.5299 45.9042 80.5299C19.9486 80.5299 18.8782 80.4916 16.3173 79.4684C12.7762 78.054 9.17744 74.3881 7.44186 70.4274C6.28464 67.7857 6.07988 66.6573 6.07988 62.9152C6.07988 59.2022 6.2827 58.065 7.37393 55.6621C9.42247 51.1522 12.1095 48.4292 16.3483 46.5683C20.9723 44.5384 23.1218 44.7902 40.5534 49.4027ZM17.0126 51.1595C16.0868 51.4745 14.3051 52.7915 13.0528 54.0856C5.46803 61.9267 10.5613 75.3491 21.1213 75.3491C26.3606 75.3491 31.1753 71.6884 32.3155 66.8392C32.5795 65.7165 32.8842 65.4792 33.8983 65.6067C34.776 65.717 35.2389 66.1532 35.4364 67.0552C35.8299 68.8509 37.9789 69.6161 39.7135 68.5789C40.9517 67.838 41.0216 67.579 41.1555 63.2344C41.3224 57.8344 41.0017 57.2164 38.0322 57.2164C36.0468 57.2164 35.8755 57.3262 35.6047 58.7706C35.3684 60.0326 35.0695 60.3248 34.0162 60.3248C32.9657 60.3248 32.5979 59.9679 32.0846 58.452C31.2063 55.8585 28.5411 52.8604 25.9646 51.5672C23.5769 50.3689 19.8365 50.199 17.0126 51.1595ZM25.6211 53.6587C27.6954 54.7306 30.5828 58.2033 30.5828 59.6254C30.5828 60.7025 28.2703 60.4875 27.9414 59.3799C27.446 57.7142 25.0685 55.7419 22.7637 55.086C20.7069 54.5006 20.3319 54.5508 18.1552 55.7031C12.5123 58.6903 11.9523 65.7486 17.0393 69.77C20.1523 72.2313 25.559 70.9688 27.6929 67.2821C28.6949 65.5507 30.5848 64.8119 30.5809 66.1532C30.578 67.3034 28.7682 70.0129 27.1063 71.3558C20.5124 76.6837 11.1702 71.5801 11.1818 62.6562C11.1867 59.0105 14.1557 54.5607 17.5526 53.108C19.6031 52.2314 23.3552 52.4873 25.6211 53.6587ZM24.7181 58.1411C26.8827 59.8663 26.5493 60.3248 23.1301 60.3248C20.4076 60.3248 19.8573 60.4865 19.2081 61.4765C17.4866 64.1001 18.8433 65.5056 23.0966 65.5056C24.8123 65.5056 26.216 65.6984 26.216 65.9336C26.216 67.0423 23.7016 68.7504 21.7579 68.9617C18.1208 69.357 15.5414 66.8236 15.5414 62.8557C15.5414 57.8785 20.9214 55.114 24.7181 58.1411ZM39.3166 62.9515C39.3166 66.9905 39.2797 67.1262 38.2249 66.9666C37.2409 66.8174 37.1186 66.4734 36.9871 63.4877C36.8124 59.5317 37.0288 58.7706 38.3311 58.7706C39.2404 58.7706 39.3166 59.0944 39.3166 62.9515ZM57.2789 61.7506C55.1814 62.8753 53.3871 65.659 53.3895 67.7841C53.3919 69.8876 54.9233 72.5101 56.901 73.7975C58.2649 74.6855 59.3498 74.8274 64.7899 74.8274C70.1879 74.8274 71.3213 74.6819 72.6484 73.8177C75.6295 71.8765 75.8808 66.6542 73.0855 64.7223C72.1205 64.0555 60.9495 60.8419 59.6021 60.844C59.2532 60.844 58.2076 61.2522 57.2789 61.7506ZM35.4349 62.9152C35.4349 63.2385 32.6047 63.4333 27.9142 63.4333C23.2237 63.4333 20.3935 63.2385 20.3935 62.9152C20.3935 62.592 23.2237 62.3972 27.9142 62.3972C32.6047 62.3972 35.4349 62.592 35.4349 62.9152ZM65.9161 64.4342C68.9375 65.257 71.8308 66.3372 72.3451 66.8345C73.5591 68.0074 73.5334 69.686 72.2752 71.3936C71.2791 72.7463 71.2097 72.7588 64.82 72.7588C59.0922 72.7588 58.2314 72.6422 57.1295 71.7164C54.7127 69.6865 55.029 65.2425 57.7001 63.6924C59.409 62.7008 59.622 62.7199 65.9161 64.4342ZM13.8374 80.3724L15.5633 81.2511L13.0217 83.999C10.5127 86.7111 10.4424 86.7469 7.5651 86.7469H4.65046L8.02071 83.1203C9.8742 81.1257 11.5535 79.4938 11.7515 79.4938C11.9499 79.4938 12.8883 79.8891 13.8374 80.3724ZM19.3275 82.4178C20.2717 82.6877 20.4216 83.0271 20.2979 84.6124L20.1509 86.4878L16.8757 86.6412C15.0747 86.7251 13.6006 86.6184 13.6006 86.4039C13.6006 85.7967 17.1319 82.0831 17.702 82.0914C17.9815 82.0951 18.7127 82.2422 19.3275 82.4178ZM60.9083 84.6746V86.4878L41.6213 86.6231L22.3343 86.7588V84.6746V82.5903L41.6213 82.7261L60.9083 82.8613V84.6746ZM79.6208 88.8373C80.2244 89.1824 80.5592 89.9212 80.5592 90.9097V92.4458H42.0822C12.8029 92.4458 3.46607 92.2971 3.02308 91.8241C2.2778 91.0283 2.2778 89.7186 3.02308 88.9228C3.79359 88.1001 78.1851 88.0172 79.6208 88.8373Z" fill="white"/>
</svg>
