<svg width="93" height="105" viewBox="0 0 93 105" fill="none" xmlns="http://www.w3.org/2000/svg">
<path d="M33.244 0.927284C32.8817 1.17065 31.505 4.11128 28.8725 10.1954C26.7712 15.1032 24.8874 19.1795 24.7183 19.2606C24.5493 19.362 24.2111 19.4432 23.9696 19.4432C23.7281 19.4432 22.6896 19.6865 21.6752 19.9705C15.8304 21.5929 11.2174 25.7706 9.67169 30.8001C9.45432 31.5099 9.2128 33.0715 9.14035 34.2478C9.01959 36.2149 9.04374 36.4177 9.55093 36.9248C10.203 37.6346 11.4831 37.6954 12.2076 37.087C12.6182 36.7422 12.6907 36.4177 12.6907 35.0995C12.7148 30.0497 15.8546 25.6286 20.9023 23.5601C24.4527 22.1202 23.3175 22.181 46.6241 22.181C69.9307 22.181 68.7956 22.1202 72.3459 23.5601C75.9446 25.0405 78.722 27.8392 80.0021 31.3071C80.4127 32.4631 80.4368 33.6799 80.4368 52.5C80.4368 71.3201 80.4127 72.5369 80.0021 73.6929C78.722 77.1608 75.9446 79.9595 72.3459 81.4399C68.7956 82.8798 69.9549 82.819 46.3826 82.819C25.6361 82.819 25.0806 82.7987 23.5349 82.3931C19.5257 81.3385 16.1686 78.986 14.4055 76.0048C12.6907 73.0642 12.6907 73.2264 12.6907 57.0022C12.6907 42.8263 12.6907 42.5627 12.2076 42.1571C11.4831 41.5487 10.203 41.6095 9.57508 42.2787C9.14035 42.7452 9.06789 43.1102 9.06789 45.0977V47.3894L6.70101 47.4705C4.55148 47.5313 4.21336 47.5922 3.12652 48.1397C-0.375507 49.9852 -0.375507 55.0148 3.12652 56.8603C4.21336 57.4078 4.55148 57.4687 6.67685 57.5295L9.01959 57.6106L9.14035 65.3374C9.2128 71.9285 9.30941 73.267 9.64754 74.3013C11.628 79.9595 16.7724 84.1575 23.3417 85.4352C24.1628 85.5974 24.8632 85.7799 24.9357 85.8205C24.984 85.8813 26.7712 89.9171 28.8725 94.8046C31.505 100.909 32.8817 103.829 33.244 104.052C33.727 104.397 34.7172 104.417 46.5034 104.417C58.2895 104.417 59.2797 104.397 59.7628 104.052C60.125 103.829 61.381 101.132 63.772 95.5956C65.7041 91.1339 67.4431 87.0981 67.6604 86.6317C67.9986 85.8205 68.0952 85.7799 69.3994 85.5568C75.6064 84.482 81.0406 80.4868 83.0694 75.4573C83.8664 73.5306 84.1804 71.4823 84.1804 68.5011V66.0878H86.0884C89.2281 66.0878 90.7014 65.4185 91.8124 63.5122C93.02 61.4436 92.6094 58.7869 90.798 57.3064C89.6387 56.333 88.8175 56.0896 86.4265 55.9882L84.1804 55.9071V52.4797V49.0524H85.9435C88.262 49.0524 89.3247 48.7684 90.5082 47.8761C91.8607 46.8621 92.4645 45.6453 92.4886 43.962C92.4886 42.1976 91.5467 40.5346 90.0251 39.622C89.0591 39.0542 88.7934 39.0136 86.5714 38.9528L84.1804 38.8717V36.4786C84.1804 30.6176 82.6346 27.028 78.6496 23.702C75.9446 21.4306 72.9739 20.0719 69.3994 19.4634C68.0952 19.2201 67.9986 19.1795 67.6604 18.3683C67.4431 17.9019 65.7041 13.8661 63.772 9.40443C61.381 3.86792 60.125 1.17065 59.7628 0.927284C59.2797 0.602798 58.2895 0.58252 46.5034 0.58252C34.7172 0.58252 33.727 0.602798 33.244 0.927284ZM60.753 11.3311L64.0377 18.9362L55.2705 18.997C50.4401 19.0173 42.5666 19.0173 37.7362 18.997L28.9691 18.9362L32.133 11.6353C33.8478 7.61977 35.3452 4.17213 35.4418 3.96932C35.6109 3.64484 36.3113 3.62456 46.5517 3.66512L57.4683 3.72596L60.753 11.3311ZM88.407 42.6032C88.9624 43.1508 89.0349 43.3942 88.9383 44.1648C88.7451 45.5641 87.9964 46.0103 85.8468 46.0103H84.1804V43.9823V41.9543H85.9676C87.6824 41.9543 87.779 41.9745 88.407 42.6032ZM8.82637 52.5V54.528H7.11159C5.54171 54.528 5.3485 54.4875 4.6964 53.9399C4.1409 53.4735 3.99599 53.1692 3.99599 52.5C3.99599 51.8307 4.1409 51.5265 4.6964 51.0601C5.3485 50.5125 5.54171 50.472 7.11159 50.472H8.82637V52.5ZM88.1654 59.4561C88.6485 59.7806 88.8417 60.1659 88.9383 60.8352C89.0349 61.6058 88.9624 61.8492 88.407 62.3968C87.779 63.0255 87.6824 63.0457 85.9676 63.0457H84.1804V61.0177V58.9897H85.8468C87.2477 58.9897 87.6341 59.0708 88.1654 59.4561ZM63.5063 87.3212C63.1682 88.0919 61.6708 91.5192 60.1975 94.9872L57.4683 101.274H46.5034H35.5384L32.8575 95.0886C31.3843 91.6815 29.8868 88.2338 29.5487 87.4226L28.8966 85.9624H46.5034H64.1101L63.5063 87.3212Z" fill="white"/>
<path d="M38.654 12.0409C38.3159 12.3045 38.0502 12.771 38.0502 13.0549C38.0502 13.3388 38.3159 13.8053 38.654 14.0689L39.2336 14.5759H46.4551C53.1693 14.5759 53.7248 14.5556 54.2561 14.1906C55.029 13.6633 55.029 12.4465 54.2561 11.9192C53.7248 11.5542 53.1693 11.5339 46.4551 11.5339H39.2336L38.654 12.0409Z" fill="white"/>
<path d="M38.654 90.931C37.8811 91.5597 37.8811 92.3304 38.654 92.9591L39.2336 93.4661H46.4551C53.1693 93.4661 53.7248 93.4458 54.2561 93.0807C55.029 92.5535 55.029 91.3366 54.2561 90.8093C53.7248 90.4443 53.1693 90.424 46.4551 90.424H39.2336L38.654 90.931Z" fill="white"/>
<path d="M25.2255 26.7036C21.6269 27.4945 18.6079 30.0498 17.666 33.1324C17.3278 34.1667 17.2795 36.7423 17.2795 52.5001C17.2795 68.2578 17.3278 70.8334 17.666 71.8677C18.3422 74.0783 19.9846 75.9441 22.4239 77.2623C24.9115 78.6211 25.4187 78.6616 40.4412 78.6616C53.435 78.6616 53.7489 78.6616 54.232 78.256C54.8358 77.749 54.8841 76.3902 54.3044 76.0049C53.9905 75.7818 51.3337 75.7007 40.1273 75.6196C26.7471 75.5182 26.3124 75.4979 25.2255 75.0923C23.7039 74.4839 22.4239 73.4902 21.6752 72.2936C21.0472 71.2796 21.0231 71.1579 20.9506 67.041L20.8782 62.843H28.0996C35.2727 62.843 35.321 62.843 35.8041 62.3766C36.0697 62.1332 37.06 60.1052 38.026 57.8743C38.9921 55.6435 39.8616 53.7575 39.9582 53.6561C40.0548 53.5749 41.2624 56.8401 42.6391 60.9164C44.3055 65.8648 45.2716 68.4201 45.5856 68.6432C46.1411 69.0893 47.3245 69.0893 47.9042 68.6635C48.1457 68.4809 49.6914 65.4997 51.3337 62.0318C52.9761 58.5842 54.3527 55.7855 54.401 55.826C54.4493 55.8666 55.1256 57.2862 55.8985 58.9695C56.6955 60.673 57.5166 62.2346 57.7582 62.4577C58.1446 62.8025 58.6276 62.843 65.1969 62.8836L72.2252 62.9444V67.0005C72.2252 71.0362 72.2252 71.0565 71.5489 72.2125C70.776 73.5104 69.6167 74.4636 68.0227 75.0923C67.1049 75.4371 66.3079 75.5182 63.5788 75.579C60.3666 75.6601 60.2458 75.6804 59.7869 76.1671C59.1348 76.8567 59.1831 77.5665 59.9077 78.1546C60.4632 78.6413 60.6322 78.6616 63.2648 78.6616C64.7864 78.6616 66.6219 78.5602 67.3223 78.4385C70.1964 77.9315 72.6599 76.4714 74.3022 74.3419C75.9928 72.1517 75.9687 72.537 75.9687 52.5001C75.9687 32.4632 75.9928 32.8485 74.3022 30.6582C72.6599 28.5288 70.1964 27.0686 67.3223 26.5616C66.4287 26.3994 59.9801 26.3385 46.4309 26.3588C28.7275 26.3588 26.6746 26.3994 25.2255 26.7036ZM68.2884 30.0498C69.8341 30.6988 70.9693 31.6722 71.718 33.0107C72.2252 33.9234 72.2252 34.2073 72.2976 46.8622L72.3701 59.801H66.2596H60.1492L58.1204 55.2988C56.9853 52.8246 55.8743 50.6343 55.6328 50.4315C55.0773 49.965 53.7006 49.965 53.2176 50.4112C53.0002 50.614 51.5511 53.4533 49.9812 56.7184C48.3631 60.0849 47.0589 62.5388 46.9622 62.3968C46.8656 62.2549 45.7547 59.0303 44.4746 55.2379C43.1945 51.4455 42.0353 48.0993 41.8903 47.8153C41.7454 47.5111 41.359 47.1866 41.045 47.0447C39.2819 46.3754 39.0163 46.7202 35.9973 53.6966L33.3406 59.801H27.1094H20.8782L20.9506 46.7608L21.0231 33.7408L21.6752 32.7268C22.3273 31.6925 23.1726 30.9219 24.3319 30.2932C26.0225 29.4009 25.9984 29.4009 46.9864 29.4414L66.9117 29.482L68.2884 30.0498Z" fill="white"/>
<path d="M55.6328 33.8218C52.9519 34.5519 51.7685 37.2898 53.0727 39.6828C53.3625 40.2101 54.2078 41.143 54.9565 41.7514C56.2849 42.8466 58.8691 44.1851 59.6662 44.1851C60.439 44.1851 63.0233 42.8668 64.3033 41.8123C65.7524 40.6157 66.791 38.973 66.791 37.8171C66.791 35.8702 65.5351 34.3086 63.5788 33.8624C62.4678 33.5988 61.9847 33.6393 60.4873 34.1869C59.6903 34.4505 59.5454 34.4505 58.8691 34.1666C57.9272 33.761 56.454 33.5988 55.6328 33.8218ZM58.217 37.4926C58.8208 37.9387 59.4729 38.3038 59.6662 38.3038C59.8594 38.3038 60.5115 37.9387 61.1153 37.4926C62.033 36.8233 62.3229 36.7219 62.7093 36.8842C63.6271 37.31 63.1199 38.5674 61.5259 39.764C59.8352 41.0416 59.6662 41.0619 58.3861 40.2304C56.5264 39.0542 55.5845 37.594 56.2849 37.0058C56.8404 36.5597 56.9611 36.58 58.217 37.4926Z" fill="white"/>
<path d="M28.3894 34.9981C27.206 35.3834 26.7954 36.5394 27.5683 37.452C27.9305 37.8982 28.003 37.8982 33.727 37.8982C39.1853 37.8982 39.5235 37.8779 39.9824 37.4926C40.6345 36.945 40.6103 35.8499 39.9582 35.3429C39.4993 34.9981 38.9921 34.9576 34.0893 34.917C31.1669 34.8967 28.5826 34.9373 28.3894 34.9981Z" fill="white"/>
</svg>
