<svg width="82" height="94" viewBox="0 0 82 94" fill="none" xmlns="http://www.w3.org/2000/svg">
<path d="M48.175 0.274803C46.5927 0.60541 44.2929 1.76253 42.9682 2.90128C37.5958 7.43793 37.191 15.5929 42.0851 20.5336C45.8936 24.3723 51.4684 25.309 56.3256 22.9029C58.4782 21.8193 60.5205 19.7622 61.5692 17.6132C62.5811 15.5561 62.8939 14.2337 62.8939 12.1031C62.8939 9.99094 62.5811 8.63179 61.6244 6.68489C59.2142 1.7809 53.6026 -0.900684 48.175 0.274803ZM53.6026 6.57468C55.7184 7.6216 56.8776 9.4032 56.9695 11.8276C57.0615 13.8113 56.5648 15.1337 55.2769 16.4194C53.8418 17.8337 52.8483 18.2561 50.8428 18.2561C49.4261 18.2561 49.0397 18.1826 48.175 17.7786C44.4217 15.997 43.3546 11.093 46.0592 8.09914C47.5679 6.42775 49.0213 5.82164 51.174 5.93184C52.0939 5.96857 52.7011 6.13387 53.6026 6.57468Z" fill="white"/>
<path d="M75.8281 21.7458C72.9947 22.5172 70.4741 23.9682 63.7034 28.7069C62.5443 29.515 61.4588 29.8272 60.5389 29.6252C60.2629 29.5701 58.2207 28.9456 55.9944 28.2661C41.2571 23.6927 42.3059 23.9498 38.6261 24.0967C37.1726 24.1518 35.388 24.3722 34.376 24.5927C25.3791 26.5579 13.3096 34.1251 10.6786 39.4699C9.66671 41.527 10.2003 43.5474 11.9665 44.4106C13.5856 45.1821 15.7934 44.9249 21.221 43.3086C27.7709 41.3617 30.6779 40.7556 33.4193 40.7556C35.4064 40.7556 35.3144 40.5903 34.3577 42.8127C31.3955 49.6085 18.2037 67.8653 2.63844 86.6731C0.173026 89.6485 -0.102953 90.1261 0.0258372 91.2281C0.136229 92.1648 0.559397 92.826 1.46093 93.4321C2.34406 94.0566 3.66876 93.9097 6.77813 92.8628C16.1062 89.722 24.4408 83.9731 33.2721 74.606L35.572 72.1632H36.7679C38.5525 72.1632 41.6987 72.4938 42.9314 72.806C45.636 73.5223 45.8752 73.908 45.728 77.3978C45.6728 78.7937 45.3784 81.1997 45.0288 83.1834C44.6425 85.4609 44.4401 87.2608 44.4217 88.6016C44.4033 90.4934 44.4401 90.6955 44.9553 91.724C46.2064 94.2403 48.727 94.7178 51.1556 92.9179C54.9825 90.071 60.4285 80.3916 61.9372 73.7244C62.4339 71.4836 62.5627 69.904 62.3419 68.5816C61.6428 64.3756 57.2271 60.8491 48.911 57.8369C47.8438 57.4512 46.9975 57.0471 47.0159 56.9369C47.0527 56.8451 47.5311 56.0553 48.083 55.1921C49.7205 52.6942 50.9532 49.7371 51.8547 46.1004C52.0939 45.1821 51.6156 45.1821 55.9024 46.0637C59.527 46.7983 61.8268 47.0555 63.8506 46.9637C65.3225 46.8902 65.7273 46.7983 66.7024 46.3024C69.7198 44.7596 74.4114 39.7638 78.2383 33.9966C82.0653 28.2293 82.9116 24.9233 81.0533 22.8111C79.931 21.5254 78.0544 21.158 75.8281 21.7458ZM74.2274 29.4048C72.1116 32.968 66.8496 39.1944 64.7154 40.6821C64.0162 41.1597 63.9426 41.178 62.1028 41.0678C60.2445 40.9576 55.4793 40.0577 52.0203 39.1944C49.7757 38.625 48.9662 38.6067 48.175 39.1393C47.1631 39.8373 46.9055 40.3515 46.5191 42.5923C45.6912 47.4412 44.6793 49.7738 41.1835 54.9717C36.1975 62.3919 32.021 67.5531 26.6486 72.9162C23.0425 76.5161 19.7859 79.2712 16.7686 81.3099C14.7447 82.6691 12.6473 83.9548 12.5737 83.8813C12.5369 83.8446 13.3464 82.7977 14.3584 81.5303C26.4278 66.5061 35.8479 53.1533 39.1597 46.3575C40.5212 43.5841 41.018 41.9495 41.0364 40.2964C41.0547 38.1475 40.2268 36.8067 38.2398 35.7965C36.7127 35.0251 35.3144 34.8231 32.4074 34.9333C29.7028 35.0251 27.7709 35.3741 23.8704 36.4394C22.6009 36.7883 21.4786 37.0822 21.3866 37.0822C20.9819 37.0638 25.6735 34.217 27.8445 33.1517C32.5546 30.8374 36.3447 29.8272 39.8956 29.9742L42.0115 30.0476L50.6588 32.766L59.3062 35.4843H61.146C62.5811 35.4843 63.2435 35.3924 64.1818 35.0802C65.6169 34.5843 66.0217 34.3455 68.8735 32.2884C71.1549 30.6538 74.2826 28.6334 74.5402 28.6334C74.6322 28.6334 74.485 28.9824 74.2274 29.4048ZM45.8384 62.998C48.7086 63.9715 51.6524 65.2755 53.3818 66.3408C54.8721 67.2775 56.3808 68.7469 56.5464 69.4632C57.0247 71.3734 54.5225 78.2794 51.5972 83.0915C50.8428 84.3405 50.8244 84.2854 51.2292 81.9895C51.3764 81.0712 51.5604 79.0875 51.6156 77.5814C51.7075 75.1754 51.6707 74.6427 51.3396 73.3203C51.1188 72.4754 50.7324 71.4285 50.4748 70.9693C49.2605 68.9122 46.5927 67.4245 43.005 66.8367C42.2507 66.7265 41.3491 66.5612 40.9812 66.5061L40.3004 66.3776L41.8091 64.3205C42.6186 63.1817 43.3546 62.2634 43.4466 62.245C43.5202 62.245 44.5873 62.594 45.8384 62.998Z" fill="white"/>
</svg>
