<svg width="157" height="122" viewBox="0 0 157 122" fill="none" xmlns="http://www.w3.org/2000/svg">
<path d="M106.526 0.477837C105.595 0.813202 92.7958 6.81622 78.1343 13.8253C54.6959 25.0265 51.2383 26.7704 49.6758 28.2124C45.52 32.0356 43.9242 37.8709 45.5865 43.2032C45.9522 44.377 47.8805 48.3007 49.9085 51.8891C51.9032 55.4775 53.4325 58.4958 53.2996 58.6299C53.1666 58.7641 42.8603 64.9348 30.3931 72.3463L7.68611 85.7944L5.75784 85.5597C3.1979 85.2914 1.70183 85.895 0.90393 87.5718C0.172519 89.1145 0.438487 90.3889 1.66859 91.5962C2.49974 92.4011 3.03167 92.5688 5.55836 92.8035C9.21542 93.1724 11.3099 93.8767 15.1664 96.1236C20.6188 99.276 23.6442 100.014 30.2269 99.7791C35.3467 99.5779 38.2391 98.7059 42.7606 95.9895C47.1491 93.3401 49.6757 92.6694 54.4964 92.9041C58.9846 93.0718 60.0485 93.4072 64.6364 96.023C66.3985 97.0626 69.0249 98.3035 70.4545 98.773C72.8149 99.5779 73.4799 99.6449 78.5 99.6785C83.6531 99.6785 84.1518 99.6114 86.6452 98.7395C88.1081 98.2029 90.7678 96.962 92.5298 95.9224C96.9847 93.4072 99.0127 92.8035 103.335 92.8035C107.557 92.8035 110.217 93.6084 114.406 96.1236C115.968 97.0291 118.428 98.2364 119.891 98.7395C122.385 99.6114 122.883 99.6785 128.036 99.6785C132.89 99.6785 133.788 99.5779 135.816 98.9071C138.409 98.0352 139.939 97.2974 142.731 95.6206C145.391 93.9773 148.017 93.1389 151.442 92.8035C153.968 92.5688 154.5 92.4011 155.331 91.5962C156.562 90.3889 156.827 89.1145 156.096 87.5718C155.198 85.6938 153.869 85.2578 150.145 85.6938C146.288 86.1298 142.764 87.3371 139.041 89.4834C134.752 91.9316 133.023 92.5017 129.333 92.7029C125.31 92.9377 122.019 92.2669 119.226 90.6236C115.669 88.5109 111.912 86.8005 109.751 86.2975C108.588 86.0292 107.557 85.6603 107.424 85.5261C106.992 85.0566 78.766 43.3373 78.633 43.002C78.5665 42.8008 87.3767 38.1727 98.2481 32.7063C116.4 23.5509 118.096 22.6119 119.393 21.1363C123.316 16.6759 123.781 10.2369 120.523 5.37415C119.127 3.32843 117.763 2.18819 115.204 1.01442C112.743 -0.0922775 108.987 -0.327034 106.526 0.477837ZM113.309 8.05706C114.572 8.89547 115.735 11.0418 115.735 12.5174C115.702 14.0601 114.572 16.2735 113.342 17.0113C112.743 17.3802 103.734 21.9747 93.2944 27.2734C78.633 34.685 74.0783 37.1331 73.1141 38.1392C71.3189 40.0172 70.7537 42.7001 71.6513 45.1818C71.884 45.819 78.0678 55.1757 85.4151 65.9409C92.7625 76.706 98.6803 85.6267 98.5806 85.7944C98.4808 85.9621 98.0819 86.0962 97.6829 86.0962C96.3198 86.1298 92.43 87.706 89.039 89.6846C85.1159 91.9316 82.3898 92.77 78.7327 92.77C75.2086 92.8035 72.15 92.0322 69.3573 90.456C62.4422 86.4651 59.6828 85.6267 53.5655 85.6267C48.6119 85.6267 45.4868 86.3981 41.597 88.5109C36.3774 91.395 34.7483 92.0992 32.5873 92.5017C29.5287 93.0383 24.974 92.7364 22.4806 91.7974C20.4526 91.0261 16.995 89.1145 16.995 88.7791C16.995 88.645 26.1376 83.145 37.3415 76.5048C48.5121 69.8982 58.1535 63.9622 58.7851 63.3586C60.3145 61.8494 61.0791 59.0994 60.5472 57.0202C60.3477 56.1818 58.5192 52.5263 56.4579 48.9044C54.4299 45.2825 52.5681 41.7276 52.3022 40.9898C51.5043 38.6758 52.4019 35.3221 54.2969 33.5447C54.8621 32.9746 104.232 9.09669 108.754 7.18512C109.651 6.78268 112.178 7.28572 113.309 8.05706Z" fill="white"/>
<path d="M124.047 30.7621C118.628 31.5334 113.641 34.1157 109.585 38.2742C106.559 41.3931 105.03 43.7742 103.7 47.5638C100.575 56.518 102.57 66.3777 108.92 73.2862C114.006 78.8197 120.157 81.5362 127.538 81.5026C131.66 81.5026 134.552 80.899 137.811 79.4234C149.945 73.8899 155.763 60.1735 151.342 47.5303C147.951 37.9053 139.24 31.2986 129 30.6615C127.471 30.5608 125.244 30.6279 124.047 30.7621ZM132.159 38.3413C138.309 39.951 143.562 45.2163 145.158 51.3869C145.79 53.9357 145.79 58.2284 145.158 60.7771C143.562 66.8808 138.609 71.9448 132.392 73.8228C130.098 74.4935 125.476 74.5271 122.883 73.8563C116.799 72.2466 111.513 66.9143 109.917 60.7771C108.853 56.5515 109.452 51.2863 111.513 47.3626C112.843 44.8474 116.3 41.326 118.727 39.9846C122.65 37.8718 127.903 37.2346 132.159 38.3413Z" fill="white"/>
<path d="M1.93491 108.23C0.704807 109.236 0.206117 110.913 0.804545 112.321C1.50271 113.998 2.10114 114.334 5.12652 114.635C8.55086 114.971 11.676 115.943 13.7705 117.285C18.3917 120.236 22.3479 121.611 27.1354 121.879C33.0199 122.215 37.6078 121.074 42.6945 118.056C47.2159 115.34 48.978 114.803 53.5659 114.803C58.1206 114.77 59.5834 115.172 64.2711 117.855C68.1609 120.068 70.2221 120.873 73.447 121.51C80.0629 122.785 86.3797 121.577 92.7629 117.821C96.021 115.91 98.8469 114.971 102.039 114.736C106.028 114.434 108.787 115.172 114.107 117.922C120.191 121.074 122.718 121.779 128.037 121.779C133.822 121.812 137.445 120.773 142.665 117.62C145.491 115.91 148.35 115.004 151.808 114.635C154.9 114.334 155.498 113.998 156.196 112.321C156.795 110.913 156.296 109.236 155.066 108.23C154.401 107.693 153.703 107.559 151.841 107.559C147.984 107.559 144.394 108.632 139.507 111.215C134.287 114.032 132.093 114.702 128.369 114.736C123.914 114.77 122.518 114.3 115.337 110.51C111.148 108.297 108.588 107.727 102.936 107.727C98.5809 107.76 98.0822 107.827 95.1234 108.834C93.3946 109.437 90.7016 110.712 89.1058 111.617C81.2265 116.212 74.9098 115.977 66.4653 110.812C65.4015 110.175 63.2405 109.236 61.6447 108.699C58.9185 107.794 58.3533 107.727 53.5659 107.727C48.8782 107.76 48.18 107.827 45.7531 108.666C44.2903 109.135 41.5973 110.41 39.7688 111.449C35.1144 114.166 33.2859 114.702 28.7976 114.702C24.6087 114.702 22.1485 114.032 18.9236 112.053C13.9699 109.001 9.54823 107.559 5.15977 107.559C3.29799 107.559 2.59983 107.693 1.93491 108.23Z" fill="white"/>
</svg>
