<svg width="199" height="170" viewBox="0 0 199 170" fill="none" xmlns="http://www.w3.org/2000/svg">
<path d="M42.1157 0.564804C41.0257 0.953506 39.3129 1.96414 38.2619 2.78041C35.9262 4.72391 32.6952 8.53319 32.3837 9.77702C32.2669 10.2823 31.6052 11.0597 30.9434 11.4484C29.6198 12.2258 13.6594 26.4912 9.02696 31.0001C5.99058 33.9931 4.55025 36.2864 3.81061 39.4738C2.52599 44.9933 5.05631 51.679 9.61088 54.8275C10.4673 55.4105 20.2771 60.0749 31.4495 65.1669C42.6607 70.2978 51.8477 74.4957 51.8866 74.5735C52.0424 74.729 54.8062 86.5066 54.8062 86.973C54.8062 87.1674 50.057 84.9518 44.2957 82.0754C31.2159 75.5452 28.3742 74.7678 22.6907 76.2449C14.3212 78.4605 8.48197 85.6903 8.48197 93.9697C8.48197 96.6906 14.0487 135.988 14.7494 138.009C15.1776 139.331 15.0608 139.448 13.1533 140.225C7.43091 142.441 2.99313 147.105 1.12459 152.741C0.0346026 156.045 -0.315749 159.31 0.307098 160.748C1.31923 163.275 -1.36681 163.12 42.1546 163.12H81.7444L82.8733 161.992C84.0801 160.748 84.3915 158.727 83.574 157.211C82.6397 155.423 81.6276 155.346 63.3315 155.346H46.1253L46.3978 153.868C46.5146 153.091 46.6314 149.748 46.6314 146.483C46.6314 140.769 46.6703 140.575 47.4488 140.575C47.8771 140.575 48.7724 140.07 49.3952 139.448C50.8356 137.971 50.8356 136.843 49.3563 131.635C48.7335 129.38 48.1885 127.242 48.1885 126.893C48.1885 126.232 49.2785 126.193 65.4336 126.193H82.6786L122.541 144.656C147.338 156.123 162.87 163.12 163.61 163.12C164.272 163.12 165.167 162.847 165.634 162.537C166.413 161.992 166.958 162.148 173.809 165.491C177.819 167.395 182.178 169.261 183.463 169.611C191.404 171.671 198.956 165.296 198.995 156.512C199.034 154.063 198.84 153.247 197.944 151.381C196.193 147.805 194.207 146.367 184.826 141.935C177.935 138.631 176.495 137.815 176.573 137.232C177.001 134.861 176.806 133.539 175.872 132.645C175.327 132.101 168.67 128.681 161.08 124.988C145.82 117.564 145.353 117.447 143.484 119.546C142.238 120.946 142.044 122.811 143.056 124.211C143.445 124.833 148.039 127.281 155.941 131.129C163.96 135.016 168.087 137.271 167.97 137.582C167.23 139.331 160.963 153.596 160.885 153.713C160.846 153.752 143.757 145.861 122.891 136.221L84.9754 118.613L65.3168 118.536L45.6582 118.419L44.2568 113.482C42.4271 107.03 41.96 106.136 40.0915 105.553C37.4833 104.776 35.1476 106.602 35.2644 109.323C35.3033 110.217 39.3908 125.338 41.415 132.101C41.6097 132.762 40.9868 132.801 31.683 132.801H21.7175L21.5228 131.907C20.9778 129.419 16.2676 95.7965 16.2676 94.2806C16.2676 89.7328 19.5764 85.2628 23.8585 83.98C27.9459 82.8139 28.5299 83.0083 44.9964 91.171L59.9058 98.5952H74.4259H88.985L103.388 105.592C112.497 110.023 118.259 112.588 118.998 112.588C120.789 112.588 122.619 110.8 122.619 109.012C122.619 108.274 122.424 107.224 122.152 106.758C121.84 106.136 117.714 103.959 108.838 99.6058L96.0309 93.3477L100.43 87.4395L104.829 81.5312L128.38 81.4146C151.659 81.298 151.97 81.298 153.761 80.4429C154.773 79.9764 160.807 76.4004 167.152 72.4745C175.133 67.5769 178.909 65.0114 179.337 64.2729C179.687 63.651 180.777 62.757 181.789 62.2517C183.93 61.1244 187.745 57.665 189.302 55.4494C191.482 52.3009 191.755 47.4033 189.925 43.905C188.796 41.7283 181.478 34.6539 179.376 33.721C176.806 32.5549 172.797 32.6326 170.15 33.8765C167.658 35.0037 163.221 39.3572 161.858 41.9615C160.885 43.8661 160.885 43.8661 150.258 49.3079L139.591 54.7497L122.229 52.3398C112.653 51.0182 104.751 49.8521 104.673 49.7744C104.556 49.6966 104.945 49.1136 105.49 48.5305C107.242 46.7036 108.838 43.6718 110.123 39.8625C111.213 36.6751 111.369 35.6645 111.407 31.933C111.407 28.4347 111.252 27.2297 110.551 25.3639C108.254 19.1836 103.778 14.4803 98.0163 12.2647C94.9799 11.0597 88.4789 10.7877 85.3258 11.7205C81.7833 12.7312 78.5912 14.5969 76.022 17.1623C73.2192 19.961 71.5453 22.9929 70.1438 27.8127C69.2096 31.039 69.1317 31.8941 69.3264 35.7422C69.4431 38.6186 69.7546 40.6399 70.1828 41.7671C70.5721 42.6611 70.8056 43.5163 70.6499 43.6329C70.4163 43.8661 43.3225 40.018 42.2714 39.5904C41.7654 39.396 42.5439 38.5409 45.8528 35.82C48.1496 33.8765 50.3685 31.7775 50.7577 31.1167C51.147 30.4171 51.9645 29.7174 52.7431 29.4453C54.6505 28.7456 60.1004 23.2261 61.1515 20.9716C62.3193 18.3673 62.3193 14.3637 61.1126 11.7594C59.9058 9.15511 53.3659 2.50832 50.6409 1.18674C47.9549 -0.134857 44.7239 -0.368088 42.1157 0.564804ZM47.3321 8.18335C48.7724 8.92188 53.833 14.2082 54.1834 15.3354C54.6895 16.8902 54.1445 17.9009 51.5363 20.3886C47.916 23.848 47.4878 23.8091 42.8554 19.1836C38.1451 14.4803 38.1061 14.0527 41.8822 10.2823C44.685 7.48369 45.4635 7.21159 47.3321 8.18335ZM95.447 19.7278C98.2888 20.7773 101.092 23.3427 102.493 26.1802C103.505 28.1626 103.622 28.8622 103.622 31.7386C103.622 37.3359 101.325 42.5056 97.7048 45.1488C95.0188 47.1312 92.6831 47.792 89.1407 47.5976C82.6786 47.2478 78.163 43.1664 76.9173 36.5585C76.567 34.5761 76.6059 33.8376 77.3455 31.039C77.8127 29.2509 78.5912 26.9576 79.1362 25.947C80.304 23.6148 83.6908 20.4663 85.9875 19.6112C88.4789 18.6783 92.7999 18.7172 95.447 19.7278ZM37.1719 24.8586L41.6097 29.2509L35.3812 34.4595C28.8024 39.9402 27.9849 40.9897 28.5688 43.0887C29.3084 45.6153 29.3474 45.6153 51.3027 48.8803C62.475 50.5129 71.662 51.9511 71.701 52.0288C71.7788 52.0677 74.7373 60.8523 78.2798 71.4639L84.7029 90.8212H74.2313C68.4699 90.8212 63.7597 90.7434 63.7597 90.588C63.7597 89.7328 55.7794 57.7427 55.3512 56.9265C53.833 54.0112 49.0838 54.6331 48.3831 57.8205C48.2274 58.5201 48.3831 60.1138 48.7724 61.7075C49.1617 63.2234 49.3953 64.5061 49.3174 64.5839C49.1228 64.7393 15.9951 49.6577 14.6326 48.7637C12.8419 47.5976 11.5962 45.5764 11.3237 43.5163C10.9344 39.9014 11.5573 39.0851 22.3403 29.2898C27.6735 24.4699 32.1891 20.5052 32.3837 20.4663C32.5784 20.4663 34.7583 22.4487 37.1719 24.8586ZM179.454 43.6718C183.268 47.3644 183.969 48.686 183.035 50.6295C182.685 51.368 181.517 52.7674 180.466 53.7002C178.831 55.1773 178.247 55.4494 176.923 55.4494C175.444 55.4494 175.094 55.2162 171.902 52.0288C168.787 48.9192 168.476 48.4528 168.476 47.0923C168.476 45.7707 168.748 45.3043 170.928 43.1276C173.108 40.9897 173.575 40.6788 174.86 40.6788C176.184 40.6788 176.69 41.0286 179.454 43.6718ZM165.673 56.9653L169.994 61.552L161.157 66.9938C156.291 70.0257 151.776 72.7466 151.075 73.0964C149.985 73.6406 147.143 73.7183 126.083 73.7183C109.266 73.7183 102.065 73.835 101.364 74.1459C100.858 74.3791 98.4445 77.2167 96.0309 80.404C93.6174 83.5913 91.5542 86.0402 91.3985 85.8847C91.2428 85.7292 90.1139 82.5807 88.9071 78.8881L86.6882 72.2413L91.6321 64.5061C94.357 60.2693 96.6149 56.771 96.6538 56.6932C96.6927 56.6544 106.113 57.9371 117.558 59.5308C129.042 61.1244 139.085 62.446 139.942 62.446C141.148 62.446 143.601 61.3576 151.386 57.3929C156.836 54.6331 161.274 52.3398 161.313 52.3398C161.313 52.3398 163.298 54.3999 165.673 56.9653ZM84.119 54.7109C85.4036 55.1384 86.7272 55.4494 87.1554 55.4494C87.5446 55.4494 87.895 55.566 87.895 55.6826C87.895 56.0713 83.8465 62.446 83.6129 62.446C83.4961 62.446 82.7954 60.658 82.0947 58.4424C81.3551 56.2657 80.6933 54.2444 80.5765 53.9335C80.4208 53.5059 80.5376 53.467 81.1215 53.7002C81.5108 53.8557 82.8733 54.3222 84.119 54.7109ZM38.6511 147.494C38.6511 153.713 38.6122 154.296 37.9115 154.801C37.2887 155.229 34.5637 155.346 22.7685 155.346H8.44304L8.71554 154.452C9.14374 153.052 11.1291 150.409 12.4915 149.36C14.5158 147.844 15.9951 147.261 18.8368 146.794C20.3161 146.561 21.951 146.133 22.4571 145.9C23.6639 145.317 24.5592 143.179 24.2478 141.702L23.9753 140.575L31.3327 140.653L38.6511 140.769V147.494ZM182.568 149.437C190.12 153.091 190.898 153.674 191.288 156.162C191.755 159.194 188.524 162.653 185.682 162.148C184.592 161.953 170.344 155.384 169.76 154.801C169.527 154.607 170.539 151.964 172.408 147.688C173.692 144.812 172.485 144.579 182.568 149.437Z" fill="white"/>
</svg>
