<svg width="137" height="158" viewBox="0 0 137 158" fill="none" xmlns="http://www.w3.org/2000/svg">
<path fill-rule="evenodd" clip-rule="evenodd" d="M116.328 1.81646C104.619 3.77205 103.192 4.38382 101.752 8.06308C100.744 10.6374 100.877 12.0772 103.113 22.8753L105.59 34.8364L84.9878 56.8272L64.3859 78.818L60.3635 77.8947C54.1345 76.4644 54.0818 76.3735 56.0208 70.4895C58.2971 63.5861 57.7702 59.7329 53.4105 51.407C51.4553 47.6715 49.7334 44.3149 49.5851 43.9481C49.4359 43.5803 50.93 43.28 52.9047 43.28C58.7544 43.28 60.6464 39.4909 57.8918 33.2944C55.5677 28.0672 53.5881 27.3169 41.2208 26.9795C28.4368 26.6299 25.3337 27.5696 23.166 32.4447C21.3704 36.484 21.5512 37.8624 24.2571 40.7508C26.1589 42.7808 27.3319 43.28 30.1992 43.28H33.7709L38.7726 52.6089C41.524 57.7393 43.767 62.7035 43.7573 63.6415C43.7476 64.5786 43.061 66.9409 42.2317 68.8904L40.723 72.4356L34.6002 72.9296C26.1305 73.6132 19.2975 77.1601 13.8257 83.7139C8.18352 90.4702 6.1577 96.2487 6.1577 105.582C6.1577 114.481 8.23054 120.878 12.9331 126.494L16.0728 130.243L8.03598 138.987C0.830107 146.828 0 148.056 0 150.885C0 152.885 0.593396 154.672 1.6213 155.769C3.21666 157.472 4.3232 157.5 70.1213 157.5H137V153.567C137 150.545 136.54 149.142 135.01 147.51C133.049 145.416 132.818 145.386 118.797 145.386H104.574V142.018V138.65L113.694 138.304C123.73 137.924 126.1 137.062 130.756 132.091C134.529 128.064 136.449 123.346 136.842 117.133C137.445 107.596 133.88 100.815 125.865 96.2556C123.17 94.7223 120.287 93.4615 119.458 93.4546C115.599 93.42 115.6 92.097 119.467 86.3124C123.744 79.9152 125.651 74.8662 125.651 69.94C125.651 68.0649 123.431 55.4272 120.719 41.854C118.007 28.2817 115.988 16.9627 116.234 16.7014C116.479 16.4392 119.702 15.7098 123.395 15.0798C130.928 13.7948 132.947 12.1802 132.947 7.43747C132.947 4.81733 130.534 0.880206 128.928 0.880206C128.536 0.880206 127.729 0.725317 127.136 0.535816C126.542 0.34718 121.679 0.922606 116.328 1.81646ZM129.43 5.73109C130.416 7.32412 130.376 7.78186 129.118 9.36363C127.939 10.845 125.618 11.488 116.349 12.9027C107.678 14.2266 104.876 14.3893 104.405 13.5967C103.437 11.9708 103.647 10.7447 105.257 8.62207C106.491 6.99444 108.345 6.39478 115.998 5.15134C127.083 3.34892 127.98 3.38699 129.43 5.73109ZM113.706 22.5128L114.932 27.7046H111.108H107.284L106.316 23.2249C105.213 18.1248 105.686 17.3564 109.946 17.3339C112.37 17.3218 112.535 17.5477 113.706 22.5128ZM53.5654 32.8298C54.9581 34.3164 55.9349 36.278 55.9349 37.5889V39.8188H41.5053C31.3633 39.8188 26.7863 39.5099 26.103 38.7805C24.5716 37.1459 24.9575 34.7326 27.1203 32.4248C29.0375 30.3775 29.5093 30.3005 40.1523 30.3005H51.1958L53.5654 32.8298ZM117.68 41.9821C118.869 47.6931 119.872 53.4586 119.909 54.7946C119.974 57.124 119.835 57.2131 116.563 56.9579L113.151 56.6922L112.161 51.5004C111.617 48.6449 110.453 42.882 109.573 38.6931L107.975 31.0775L111.746 31.338L115.518 31.5985L117.68 41.9821ZM107.386 43.8373L107.954 47.8765L92.0105 64.9109L76.0666 81.9461L72.4657 81.0661C70.4845 80.5824 68.9645 79.865 69.0877 79.4713C69.4695 78.2486 105.76 39.3498 106.305 39.58C106.588 39.6994 107.074 41.6152 107.386 43.8373ZM49.7586 51.015C54.7011 60.0124 55.3261 64.2429 52.681 70.8062C51.6855 73.2758 50.643 75.2936 50.3633 75.2911C50.0836 75.2885 48.5247 74.8921 46.8986 74.4102L43.9421 73.5336L45.5456 69.0306C46.5524 66.201 46.9675 63.5619 46.6611 61.929C46.2436 59.7 42.4546 52.1572 38.2465 45.1768L37.0427 43.1805L41.3951 43.4462L45.7475 43.7127L49.7586 51.015ZM110.544 59.0718C112.205 68.0043 112.185 70.6098 110.43 74.4941C108.112 79.6228 101.908 88.2766 100.564 88.2567C98.7421 88.2291 81.0335 83.3384 80.432 82.6963C79.9334 82.165 107.723 51.9331 108.71 51.9331C108.989 51.9331 109.813 55.1451 110.544 59.0718ZM121.902 63.2902C123.48 71.7139 121.813 77.8125 115.562 86.4829L111.901 91.5613L108.643 90.6787C106.851 90.1933 105.385 89.424 105.385 88.9698C105.385 88.5163 107.038 85.8503 109.058 83.0476C113.928 76.2931 115.37 71.8895 114.786 65.5616L114.327 60.5861H117.861C121.17 60.5861 121.427 60.7574 121.902 63.2902ZM66.9184 83.013C81.164 86.7805 99.021 91.4826 106.601 93.4607C122.947 97.7275 125.997 99.0436 129.556 103.37C132.991 107.548 133.757 109.779 133.757 115.617C133.757 123.602 130.285 129.822 123.859 133.351C121.006 134.917 118.541 135.002 75.8583 135.002C32.4933 135.002 30.705 134.938 26.4264 133.229C20.5103 130.867 14.4977 124.744 11.598 118.129C9.66458 113.717 9.32248 111.832 9.32248 105.582C9.32248 99.3802 9.66134 97.4809 11.4845 93.4676C14.9071 85.9351 19.3964 81.3871 26.4783 78.2789C34.2038 74.8887 37.795 75.3092 66.9184 83.013ZM27.5881 85.9473C26.0413 86.4734 23.0646 88.673 20.9723 90.8345C8.30025 103.931 16.8097 126.349 34.4527 126.349C43.2061 126.349 51.2502 120.235 53.1552 112.136C53.5962 110.261 54.1053 109.864 55.7995 110.077C57.266 110.261 58.0394 110.99 58.3693 112.496C59.0267 115.496 62.6171 116.774 65.5152 115.041C67.584 113.804 67.7007 113.371 67.9244 106.115C68.2033 97.0958 67.6675 96.0635 62.7063 96.0635C59.3891 96.0635 59.1029 96.247 58.6506 98.6594C58.2558 100.767 57.7564 101.255 55.9965 101.255C54.2415 101.255 53.627 100.659 52.7693 98.1273C51.302 93.7956 46.8491 88.788 42.5446 86.6283C38.5554 84.6268 32.3061 84.343 27.5881 85.9473ZM41.9706 90.1215C45.4362 91.9118 50.2604 97.7119 50.2604 100.087C50.2604 101.886 46.3968 101.527 45.8472 99.677C45.0195 96.8951 41.0473 93.6009 37.1967 92.5054C33.7604 91.5276 33.1337 91.6115 29.4972 93.536C20.0693 98.5253 19.1338 110.314 27.6327 117.031C32.8338 121.142 41.8669 119.033 45.4321 112.875C47.1061 109.984 50.2636 108.75 50.2571 110.99C50.2523 112.911 47.2285 117.436 44.452 119.679C33.4353 128.578 17.827 120.054 17.8465 105.149C17.8546 99.0601 22.815 91.628 28.4903 89.2017C31.9161 87.7376 38.1849 88.165 41.9706 90.1215ZM40.462 97.6081C44.0783 100.49 43.5214 101.255 37.8088 101.255C33.2602 101.255 32.3409 101.525 31.2563 103.179C28.3801 107.561 30.6467 109.908 37.7528 109.908C40.6193 109.908 42.9645 110.23 42.9645 110.623C42.9645 112.475 38.7637 115.328 35.5162 115.681C29.4396 116.341 25.1302 112.11 25.1302 105.482C25.1302 97.1694 34.1187 92.5521 40.462 97.6081ZM64.8521 105.642C64.8521 112.388 64.7905 112.615 63.0281 112.349C61.3841 112.099 61.1798 111.525 60.9601 106.538C60.6683 99.9305 61.0299 98.6594 63.2056 98.6594C64.7248 98.6594 64.8521 99.2002 64.8521 105.642ZM94.8624 103.637C91.3579 105.515 88.3601 110.164 88.3642 113.714C88.3682 117.227 90.9267 121.607 94.2309 123.758C96.5096 125.241 98.3222 125.478 107.411 125.478C116.43 125.478 118.323 125.235 120.541 123.791C125.521 120.549 125.941 111.827 121.271 108.6C119.659 107.486 100.995 102.119 98.7438 102.122C98.1609 102.122 96.4139 102.804 94.8624 103.637ZM58.3669 105.582C58.3669 106.122 53.6383 106.447 45.8018 106.447C37.9652 106.447 33.2367 106.122 33.2367 105.582C33.2367 105.042 37.9652 104.717 45.8018 104.717C53.6383 104.717 58.3669 105.042 58.3669 105.582ZM109.293 108.119C114.341 109.493 119.175 111.297 120.034 112.128C122.062 114.087 122.019 116.89 119.917 119.743C118.253 122.002 118.137 122.023 107.462 122.023C97.8918 122.023 96.4537 121.828 94.6127 120.282C90.5748 116.891 91.1034 109.469 95.566 106.88C98.4211 105.224 98.777 105.256 109.293 108.119ZM22.2832 134.739L25.1667 136.207L20.9205 140.796C16.7286 145.326 16.611 145.386 11.8039 145.386H6.93431L12.5651 139.329C15.6618 135.997 18.4674 133.272 18.7982 133.272C19.1297 133.272 20.6975 133.932 22.2832 134.739ZM31.4557 138.155C33.0332 138.606 33.2837 139.173 33.077 141.821L32.8314 144.953L27.3595 145.209C24.3503 145.349 21.8876 145.171 21.8876 144.813C21.8876 143.799 27.7875 137.596 28.74 137.61C29.2069 137.616 30.4286 137.862 31.4557 138.155ZM100.926 141.925V144.953L68.7027 145.179L36.4793 145.406V141.925V138.443L68.7027 138.67L100.926 138.896V141.925ZM132.19 148.877C133.198 149.454 133.757 150.687 133.757 152.338V154.904H69.4728C20.5549 154.904 4.95551 154.656 4.21538 153.866C2.97022 152.537 2.97022 150.349 4.21538 149.02C5.5027 147.646 129.791 147.507 132.19 148.877Z" fill="white"/>
</svg>
