<svg width="203" height="144" viewBox="0 0 203 144" fill="none" xmlns="http://www.w3.org/2000/svg">
<path d="M72.9819 1.21321C70.5849 1.71406 67.1008 3.46701 65.094 5.19214C56.9552 12.0648 56.342 24.419 63.7561 31.9038C69.5258 37.7191 77.9711 39.1382 85.3295 35.4932C88.5906 33.8515 91.6844 30.7351 93.2731 27.4797C94.8061 24.3633 95.28 22.3599 95.28 19.1323C95.28 15.9324 94.8061 13.8734 93.3568 10.924C89.7055 3.49483 81.2043 -0.567562 72.9819 1.21321ZM81.2043 10.7571C84.4097 12.3431 86.1656 15.0421 86.305 18.7149C86.4444 21.72 85.6918 23.7233 83.7407 25.6711C81.5667 27.8136 80.0616 28.4535 77.0235 28.4535C74.8773 28.4535 74.292 28.3422 72.9819 27.7301C67.296 25.0311 65.6793 17.6019 69.7766 13.0665C72.0622 10.5345 74.2641 9.61625 77.5252 9.7832C78.9188 9.83885 79.8386 10.0893 81.2043 10.7571Z" fill="white"/>
<path d="M114.874 33.7414C110.582 34.91 106.763 37.1082 96.506 44.2869C94.75 45.5112 93.1055 45.9842 91.7119 45.6782C91.2938 45.5947 88.1999 44.6487 84.8274 43.6192C62.5015 36.6908 64.0902 37.0804 58.5157 37.303C56.3138 37.3864 53.6101 37.7203 52.0771 38.0542C38.4475 41.0315 20.1631 52.4952 16.1773 60.5922C14.6443 63.7085 15.4526 66.7692 18.1284 68.077C20.5812 69.2456 23.9259 68.8561 32.1483 66.4075C42.0709 63.4581 46.4748 62.5399 50.6278 62.5399C53.638 62.5399 53.4986 62.2895 52.0493 65.6563C47.5618 75.9514 27.5772 103.609 3.99704 132.101C0.262121 136.609 -0.155966 137.332 0.0391415 139.002C0.206377 140.421 0.847445 141.423 2.2132 142.341C3.55108 143.287 5.5579 143.064 10.2684 141.478C24.3997 136.72 37.026 128.011 50.4048 113.821L53.8889 110.12H55.7006C58.4042 110.12 63.1704 110.621 65.0379 111.094C69.1351 112.179 69.4975 112.763 69.2745 118.05C69.1909 120.165 68.7449 123.81 68.2153 126.815C67.63 130.265 67.3234 132.992 67.2955 135.023C67.2677 137.889 67.3234 138.195 68.1039 139.753C69.9992 143.565 73.8177 144.289 77.4969 141.562C83.2944 137.249 91.5446 122.585 93.8302 112.485C94.5827 109.09 94.7779 106.698 94.4434 104.694C93.3842 98.3224 86.6948 92.98 74.0964 88.4168C72.4798 87.8325 71.1977 87.2203 71.2256 87.0534C71.2813 86.9143 72.006 85.7178 72.8422 84.4101C75.3228 80.6259 77.1903 76.1461 78.556 70.6369C78.9184 69.2456 78.1937 69.2456 84.688 70.5812C90.1789 71.6942 93.663 72.0837 96.7289 71.9446C98.9587 71.8333 99.5719 71.6942 101.049 70.9429C105.62 68.6057 112.728 61.0374 118.525 52.3004C124.323 43.5635 125.605 38.5551 122.79 35.3552C121.09 33.4075 118.247 32.851 114.874 33.7414ZM112.449 45.3443C109.244 50.7423 101.272 60.1748 98.0389 62.4286C96.9798 63.152 96.8683 63.1799 94.081 63.0129C91.2659 62.846 84.0469 61.4826 78.8069 60.1748C75.4064 59.3122 74.1801 59.2844 72.9815 60.0913C71.4485 61.1487 71.0583 61.9278 70.473 65.3224C69.2188 72.6681 67.6858 76.2018 62.39 84.0762C54.8365 95.3173 48.5095 103.136 40.3707 111.261C34.9077 116.714 29.9742 120.888 25.4031 123.977C22.3372 126.036 19.1597 127.983 19.0482 127.872C18.9925 127.816 20.2188 126.23 21.7518 124.311C40.0362 101.55 54.3069 81.3215 59.324 71.0264C61.3866 66.8249 62.1391 64.3485 62.167 61.8443C62.1949 58.5888 60.9406 56.5576 57.9304 55.0273C55.617 53.8586 53.4986 53.5525 49.0948 53.7195C44.9975 53.8586 42.0709 54.3873 36.1619 56.0011C34.2387 56.5298 32.5385 56.975 32.3991 56.975C31.7859 56.9472 38.8934 52.6343 42.1824 51.0205C49.3178 47.5146 55.0595 45.9842 60.4389 46.2068L63.6442 46.3181L76.7443 50.4362L89.8444 54.5542H92.6317C94.8057 54.5542 95.8091 54.4151 97.2306 53.9421C99.4047 53.1908 100.018 52.8291 104.338 49.7127C107.794 47.2364 112.533 44.1756 112.923 44.1756C113.062 44.1756 112.839 44.7043 112.449 45.3443ZM69.4417 96.2355C73.7898 97.7102 78.2495 99.6858 80.8695 101.3C83.1271 102.719 85.4127 104.945 85.6635 106.03C86.3882 108.924 82.5976 119.386 78.1658 126.676C77.0231 128.568 76.9952 128.484 77.6084 125.006C77.8314 123.615 78.1101 120.61 78.1937 118.328C78.3331 114.683 78.2773 113.876 77.7756 111.873C77.4411 110.593 76.8558 109.007 76.4656 108.311C74.626 105.195 70.5845 102.941 65.1494 102.051C64.0066 101.884 62.6408 101.633 62.0834 101.55L61.0521 101.355L63.3376 98.2389C64.564 96.5138 65.6789 95.1225 65.8183 95.0947C65.9298 95.0947 67.5464 95.6234 69.4417 96.2355Z" fill="white"/>
<path d="M173.629 1.03742C172.255 1.32449 170.258 2.32923 169.108 3.31803C164.443 7.25725 164.092 14.3383 168.341 18.6284C171.648 21.9615 176.489 22.7749 180.707 20.6857C182.576 19.7447 184.349 17.9585 185.26 16.0926C186.138 14.3064 186.41 13.1581 186.41 11.3081C186.41 9.47406 186.138 8.29388 185.308 6.60337C183.215 2.34518 178.342 0.0167351 173.629 1.03742ZM178.342 6.50768C180.179 7.41673 181.186 8.96371 181.266 11.0689C181.346 12.7913 180.914 13.9396 179.796 15.0559C178.55 16.284 177.687 16.6508 175.946 16.6508C174.716 16.6508 174.38 16.587 173.629 16.2361C170.37 14.6891 169.444 10.431 171.792 7.83138C173.102 6.38009 174.364 5.8538 176.233 5.94949C177.032 5.98139 177.559 6.12492 178.342 6.50768Z" fill="white"/>
<path d="M197.641 19.6808C195.18 20.3506 192.992 21.6105 187.113 25.7252C186.106 26.4269 185.164 26.698 184.365 26.5226C184.125 26.4748 182.352 25.9325 180.419 25.3424C167.622 21.3713 168.533 21.5946 165.338 21.7222C164.076 21.77 162.526 21.9614 161.647 22.1528C153.835 23.8592 143.355 30.4299 141.071 35.0709C140.192 36.8571 140.655 38.6114 142.189 39.3609C143.595 40.0308 145.512 39.8075 150.225 38.404C155.912 36.7135 158.436 36.1872 160.817 36.1872C162.542 36.1872 162.462 36.0437 161.631 37.9734C159.059 43.8743 147.605 59.7269 134.089 76.0579C131.949 78.6415 131.709 79.0562 131.821 80.0131C131.917 80.8264 132.284 81.4006 133.067 81.9269C133.834 82.4691 134.984 82.3415 137.684 81.4325C145.784 78.7053 153.021 73.7135 160.689 65.5799L162.686 63.4588H163.724C165.274 63.4588 168.006 63.7458 169.076 64.017C171.425 64.6389 171.632 64.9739 171.504 68.004C171.457 69.2161 171.201 71.3053 170.897 73.0277C170.562 75.0053 170.386 76.5682 170.37 77.7325C170.354 79.3751 170.386 79.5506 170.833 80.4437C171.92 82.6286 174.108 83.0432 176.217 81.4803C179.54 79.0083 184.269 70.6036 185.579 64.8144C186.01 62.8687 186.122 61.4971 185.931 60.3489C185.323 56.6967 181.489 53.6346 174.268 51.0191C173.342 50.6842 172.607 50.3333 172.623 50.2377C172.655 50.1579 173.07 49.4721 173.549 48.7226C174.971 46.5536 176.042 43.9859 176.824 40.8282C177.032 40.0308 176.617 40.0308 180.339 40.7963C183.486 41.4342 185.483 41.6575 187.241 41.5778C188.519 41.514 188.87 41.4342 189.717 41.0036C192.337 39.664 196.411 35.326 199.734 30.3183C203.056 25.3105 203.791 22.4398 202.178 20.6058C201.203 19.4894 199.574 19.1704 197.641 19.6808ZM196.251 26.3312C194.414 29.4252 189.845 34.8316 187.991 36.1234C187.384 36.5381 187.32 36.5541 185.723 36.4584C184.109 36.3627 179.972 35.5812 176.968 34.8316C175.019 34.3372 174.316 34.3213 173.629 34.7838C172.751 35.3898 172.527 35.8364 172.191 37.7821C171.473 41.9924 170.594 44.0178 167.558 48.5312C163.229 54.9743 159.603 59.4558 154.938 64.1126C151.806 67.2385 148.979 69.6307 146.359 71.401C144.601 72.5812 142.78 73.6975 142.716 73.6338C142.684 73.6019 143.387 72.6928 144.266 71.5924C154.746 58.5467 162.925 46.9523 165.801 41.0515C166.983 38.6433 167.415 37.2239 167.431 35.7885C167.447 33.9226 166.728 32.7584 165.002 31.8812C163.676 31.2114 162.462 31.0359 159.938 31.1316C157.59 31.2114 155.912 31.5144 152.525 32.4394C151.423 32.7424 150.448 32.9976 150.369 32.9976C150.017 32.9816 154.091 30.5097 155.976 29.5847C160.066 27.5752 163.357 26.698 166.44 26.8256L168.277 26.8894L175.786 29.2497L183.295 31.6101H184.892C186.138 31.6101 186.713 31.5303 187.528 31.2592C188.774 30.8286 189.126 30.6213 191.602 28.8351C193.583 27.4157 196.299 25.6614 196.522 25.6614C196.602 25.6614 196.475 25.9644 196.251 26.3312ZM171.6 55.5006C174.093 56.3458 176.649 57.4782 178.15 58.4032C179.444 59.2165 180.754 60.4924 180.898 61.1144C181.314 62.773 179.141 68.7695 176.601 72.948C175.946 74.0325 175.93 73.9846 176.281 71.9911C176.409 71.1937 176.569 69.4713 176.617 68.1635C176.697 66.0743 176.665 65.6118 176.377 64.4635C176.185 63.7299 175.85 62.8208 175.626 62.4221C174.572 60.6359 172.255 59.3441 169.14 58.8338C168.485 58.7381 167.702 58.5945 167.383 58.5467L166.792 58.4351L168.102 56.6489C168.805 55.6601 169.444 54.8627 169.523 54.8467C169.587 54.8467 170.514 55.1497 171.6 55.5006Z" fill="white"/>
</svg>
