<svg width="69.000000" height="50.000000" viewBox="0 0 69 50" fill="none" xmlns="http://www.w3.org/2000/svg" xmlns:xlink="http://www.w3.org/1999/xlink">
	<defs/>
	<path id="Vector" d="M33.2168 0.146484C31.8135 0.603516 30.842 1.46484 30.2213 2.7832C29.938 3.38818 29.8705 3.72461 29.8705 4.6665C29.8705 6.10547 30.2753 7.04736 31.2872 8.0293L31.9755 8.70215L27.4957 15.0781L23.0161 21.4678L16.1887 18.0513L9.36133 14.6479L9.34778 13.7734C9.3208 12.1724 8.29529 10.6123 6.77063 9.83203C6.06897 9.48193 5.85315 9.44189 4.70618 9.44189C3.22205 9.44189 2.54736 9.68408 1.60278 10.5312C-0.947266 12.8315 -0.367065 16.8003 2.72278 18.2666C3.18152 18.4814 3.68079 18.6567 3.82922 18.6567C4.08557 18.6567 4.30139 19.5576 6.77063 30.6021L9.42871 42.5342L9.42871 45.8164L9.42871 49.0854L9.88745 49.5425L10.3463 50L34.5256 50L58.705 50L59.1637 49.5425L59.6224 49.0854L59.6224 45.8164L59.6224 42.5342L62.2805 30.6021C64.7498 19.5576 64.9656 18.6567 65.2219 18.6567C65.6942 18.6567 67.1379 17.8896 67.6912 17.3384C67.9745 17.0557 68.3928 16.4502 68.6086 16.02C68.946 15.334 69 15.0649 69 14.083C69 13.0605 68.946 12.8452 68.5547 12.0381C68.042 11.0024 67.3134 10.2891 66.2474 9.7915C65.6133 9.49561 65.303 9.44189 64.345 9.44189C63.387 9.44189 63.0767 9.49561 62.4424 9.7915C60.7828 10.5718 59.7303 12.0918 59.7034 13.7598L59.6899 14.6479L52.8624 18.0513L46.035 21.4678L41.5554 15.0781L37.0757 8.70215L37.7639 8.0293C38.7759 7.04736 39.1807 6.10547 39.1807 4.6665C39.1807 3.71094 39.1132 3.40186 38.8163 2.76953C38.0472 1.10156 36.5496 0.0927734 34.755 0.0117188C34.1748 -0.0283203 33.5541 0.0385742 33.2168 0.146484ZM35.4701 3.44189C35.6589 3.57666 35.8749 3.89941 35.9694 4.16846C36.4011 5.44629 35.1868 6.6167 33.9454 6.09229C33.3383 5.8501 33.0009 5.33887 33.0009 4.65283C33.0009 3.375 34.3906 2.70215 35.4701 3.44189ZM39.4504 17.5264C42.1221 21.3472 44.4564 24.5889 44.6318 24.7236C45.3469 25.2886 45.5088 25.2212 53.5776 21.1987L61.1471 17.4189L61.4979 17.7686L61.8352 18.1187L59.3661 29.2432C58.0033 35.3774 56.8563 40.4624 56.8159 40.543C56.735 40.7988 12.3162 40.7988 12.2352 40.543C12.1948 40.4624 11.0479 35.3774 9.68506 29.2432L7.21594 18.1187L7.55322 17.7686L7.90405 17.4189L15.4735 21.1987C23.5424 25.2212 23.7042 25.2886 24.4194 24.7236C24.5947 24.5889 26.9291 21.3472 29.6007 17.5264C32.2722 13.7197 34.4851 10.5986 34.5256 10.5986C34.566 10.5986 36.7789 13.7197 39.4504 17.5264ZM5.65076 12.8452C6.36584 13.3833 6.4198 14.5 5.75867 15.1592C5.43481 15.4951 5.24597 15.5625 4.71973 15.5625C3.53235 15.5625 2.83069 14.5537 3.26245 13.5044C3.68079 12.5356 4.80066 12.2266 5.65076 12.8452ZM65.1276 12.7378C65.7482 13.1143 66.045 13.8408 65.8427 14.5C65.6267 15.2129 65.1276 15.5625 64.3314 15.5625C63.7917 15.5625 63.6298 15.4951 63.2791 15.1455C62.5099 14.3789 62.7393 13.0874 63.7108 12.6704C64.3044 12.4146 64.6147 12.4282 65.1276 12.7378ZM56.519 45.3589L56.519 46.9062L34.5256 46.9062L12.5321 46.9062L12.5321 45.3589L12.5321 43.812L34.5256 43.812L56.519 43.812L56.519 45.3589Z" fill="#A8A8A8" fill-opacity="1.000000" fill-rule="nonzero"/>
</svg>
