<svg width="139" height="130" viewBox="0 0 139 130" fill="none" xmlns="http://www.w3.org/2000/svg">
<path fill-rule="evenodd" clip-rule="evenodd" d="M109.678 0.164278C102.433 1.13402 95.8007 5.33205 90.7067 12.1719C84.938 19.9183 81.662 28.5784 80.6409 38.7814L80.4286 40.9051H64.1631C46.3129 40.9051 46.0047 40.934 41.9801 42.9873L39.9259 44.0358L37.7673 43.0063C31.2746 39.9095 26.2088 39.9047 20.2158 42.99C17.9111 44.1762 16.9311 44.9682 14.2151 47.8384C10.7586 51.491 8.4519 54.7761 7.91168 56.8151C6.58593 61.8201 8.7993 67.079 13.2286 69.4469C15.2135 70.5081 15.7184 70.6338 17.9156 70.6138C21.3893 70.5822 23.1791 69.6892 25.9531 66.603C28.3953 63.8864 30.4767 61.9717 30.9878 61.9717C31.6145 61.9717 31.0601 68.3637 30.2159 70.8686C29.7956 72.1156 27.4833 76.9599 25.0775 81.634L20.7036 90.132L17.9091 87.2652C14.5505 83.8191 12.8767 82.9167 9.82335 82.9058C2.81834 82.8813 -1.64827 90.9264 1.55675 97.7951C2.99819 100.884 11.4035 108.998 18.2714 113.93C30.0788 122.409 44.2713 127.949 58.4556 129.615C62.8309 130.129 72.5574 130.128 76.9274 129.614C96.3445 127.329 114.124 118.514 128.717 103.936C132.633 100.024 133.71 98.4968 134.461 95.7884C135.134 93.362 134.948 91.1751 133.855 88.674C132.25 84.9961 129.242 82.9133 125.537 82.9133C122.545 82.9133 120.833 83.8246 117.59 87.1432C115.384 89.4011 114.873 89.7806 114.726 89.2682C114.22 87.4973 111.603 71.0691 111.603 69.6647C111.603 68.7663 111.885 66.8588 112.23 65.4263C113.581 59.8154 113.423 55.7632 111.616 49.6127C110.88 47.1055 110.632 45.6033 110.635 43.6665C110.642 40.1844 111.074 39.5704 111.579 42.3237C112.4 46.7973 114.6 50.0775 117.93 51.7958C119.315 52.5101 120 52.6276 122.783 52.6276C125.681 52.6276 126.22 52.5264 127.883 51.6701C131.787 49.6603 134.469 45.535 134.833 40.9812C135.17 36.7651 134.039 30.6021 132.152 26.3773C131.544 25.0151 131.05 23.484 131.054 22.974C131.064 21.6322 132.064 19.5551 133.546 17.7998C135.978 14.9177 138.5 10.9375 138.5 9.9803C138.5 9.43699 138.149 8.69014 137.646 8.16212L136.791 7.26645L130.759 7.2481L124.727 7.22941L123.755 5.6416C121.242 1.53667 115.657 -0.636254 109.678 0.164278ZM115.675 6.07788C116.555 6.35888 117.626 6.87569 118.057 7.22669L118.84 7.86481L116.923 8.43632C112.429 9.77541 109.148 11.3591 104.959 14.211C99.8917 17.6611 93.8842 23.5091 89.3126 29.4418C88.3076 30.7459 87.4392 31.6663 87.3821 31.4873C87.2321 31.015 89.1518 25.45 90.2871 23.0664C92.7218 17.954 97.1851 12.2076 100.672 9.69658C105.553 6.18185 111.506 4.74593 115.675 6.07788ZM130.398 12.897C130.398 13.0034 129.825 13.8063 129.125 14.6809C127.032 17.2945 126.091 19.6278 125.926 22.6053C125.789 25.0711 125.848 25.3538 127.098 28.2118C128.211 30.7598 129.556 35.7054 129.242 36.0965C129.127 36.2385 116.663 39.5344 116.592 39.4409C116.566 39.4053 116.155 38.5072 115.68 37.4454C115.205 36.3836 114.316 35.0533 113.703 34.4889C110.835 31.8491 106.771 33.2657 105.745 37.2622C105.515 38.1586 105.434 40.5734 105.527 43.7878C105.657 48.2865 105.78 49.1914 106.567 51.4384C107.876 55.1719 108.061 60.0274 107.054 64.1912C105.96 68.7113 106.089 70.8774 108.181 82.9955C109.193 88.8588 109.947 93.8564 109.858 94.101C109.705 94.5182 105.093 98.0924 104.949 97.9052C104.913 97.8576 102.805 94.0728 100.265 89.4942C97.7244 84.9156 95.2624 80.7359 94.7935 80.2059C92.479 77.5899 89.3171 77.4441 85.9096 79.7961C78.4904 84.917 59.9642 84.9455 52.7255 79.8471C49.5493 77.6103 49.4097 77.5464 47.6746 77.5297C44.6355 77.5012 44.0376 78.038 36.0922 87.9234L28.8545 96.928L27.5329 95.9215C24.4608 93.5821 24.2031 94.9756 29.6614 84.3974C35.5934 72.9012 36.0656 71.5037 36.4353 64.3502C36.7627 58.021 36.8864 57.2871 38.069 54.6663C39.3814 51.7574 41.9283 49.0225 41.9283 50.522C41.9283 51.4088 44.4712 56.4206 45.9927 58.5317C56.0287 72.4595 75.9325 70.2125 83.2431 54.3265C84.6078 51.3606 85.6772 47.4272 85.6772 45.3726C85.6772 43.2047 93.1683 32.6092 98.927 26.6318C106.592 18.675 114.585 13.9867 122.028 13.0802C124.822 12.74 130.398 12.6177 130.398 12.897ZM114.556 22.8116C114.18 23.1388 113.782 23.8968 113.672 24.4969C113.504 25.4096 113.632 25.7561 114.456 26.6206C115.356 27.5635 115.629 27.6535 117.588 27.6535C119.434 27.6535 119.845 27.5369 120.529 26.8193C121.513 25.7877 121.562 24.3239 120.653 23.1123C120.037 22.2907 119.785 22.2169 117.61 22.2169C115.828 22.2169 115.069 22.3648 114.556 22.8116ZM129.201 42.5826C128.916 43.726 126.759 46.0695 125.393 46.7201C123.726 47.5146 121.846 47.5173 120.19 46.728C118.977 46.149 117.832 45.1113 118.119 44.85C118.262 44.7195 128.407 42.027 128.991 41.9645C129.207 41.9414 129.296 42.202 129.201 42.5826ZM34.0593 47.3355L35.7499 48.1146L34.9745 49.1819C34.1082 50.3735 32.2069 54.4329 32.2066 55.0911C32.2063 55.3248 32.007 55.5158 31.7636 55.5158C31.5202 55.5158 30.2489 56.0781 28.9387 56.7655C27.1159 57.7217 25.8688 58.7485 23.6292 61.1368C20.2771 64.7114 19.8072 65.0297 17.8826 65.0297C15.932 65.0297 14.3881 64.0654 13.4743 62.2758C12.049 59.4851 12.8177 57.4927 17.3054 52.3453C19.3302 50.0228 21.9327 48.0956 24.4287 47.0705C26.8871 46.061 31.5727 46.1901 34.0593 47.3355ZM80.1681 46.798C80.1681 47.0491 79.8955 48.0847 79.5627 49.0993C77.2758 56.0686 72.2408 60.809 65.8534 62.0057C59.5549 63.1857 53.0308 59.881 49.1135 53.5264C47.8976 51.5539 46.2938 47.4272 46.613 47.0925C47.1321 46.5485 50.6657 46.4072 64.5319 46.3763C77.4213 46.3477 80.1681 46.4218 80.1681 46.798ZM48.9443 83.9037C51.6843 86.0947 56.9024 88.0233 62.1717 88.7915C65.3865 89.2604 73.3902 89.258 76.3791 88.7875C81.4559 87.9883 86.2502 86.2826 89.2821 84.1973C89.7497 83.8755 90.3486 83.6992 90.6127 83.8055C91.1167 84.0084 100.442 100.629 100.197 100.887C99.661 101.449 92.574 104.636 89.3408 105.769C72.4644 111.684 54.0334 110.425 37.8168 102.249C33.6749 100.16 33.4465 99.9939 33.8668 99.3758C35.5383 96.9161 47.0398 83.0383 47.4069 83.0383C47.6574 83.0383 48.3493 83.4277 48.9443 83.9037ZM11.8044 89.0718C12.2581 89.3974 13.7893 90.8595 15.2071 92.3209C26.3488 103.802 40.3215 111.277 55.7011 113.986C60.7371 114.872 69.4344 115.19 74.4969 114.673C91.5982 112.924 107.171 105.384 119.541 92.8625C123.532 88.8221 124.021 88.4748 125.716 88.4748C126.671 88.4748 127.162 88.7392 128.168 89.7939C129.323 91.0045 129.426 91.2658 129.426 92.9709C129.426 95.3154 128.702 96.4221 124.528 100.456C112.654 111.93 99.2442 119.395 84.7426 122.602C57.7109 128.58 30.4725 120.228 10.0709 99.7064C8.31612 97.9416 6.64912 96.0303 6.36654 95.4591C5.28027 93.2658 6.12284 89.8292 7.9765 88.8921C9.09518 88.327 10.8847 88.411 11.8044 89.0718Z" fill="white"/>
</svg>
