<svg width="133.137573" height="123.678711" viewBox="0 0 133.138 123.679" fill="none" xmlns="http://www.w3.org/2000/svg" xmlns:xlink="http://www.w3.org/1999/xlink">
	<defs/>
	<path id="Vector" d="M7.6897 62.708C6.32141 65.0977 6.6792 67.918 8.56531 70.2158L9.70715 71.5771L5.70276 74.9404C0.56781 79.252 -0.126221 80.4355 0.594055 83.832C0.855225 85.0527 1.23737 85.6523 4.96631 90.2432L9.04572 95.3008L4.51154 99.2275C0.0715942 103.076 -0.022644 103.155 0.00231934 104.095C0.0114136 104.968 0.401306 105.48 6.26801 112.478C12.1347 119.475 12.5717 119.948 13.4288 120.108C14.3488 120.296 14.4431 120.217 19.0011 116.51L23.6534 112.723L27.9212 117.621C31.7914 122.094 32.3149 122.574 33.4712 123.044C36.6883 124.344 37.9729 123.865 43.1079 119.553L47.1122 116.19L48.1951 117.481C50.2031 119.877 53.0303 120.663 55.6506 119.624C56.8683 119.161 58.062 118.239 62.6432 114.271C68.0253 109.632 68.1941 109.45 68.707 108.099C69.3726 106.26 69.193 104.37 68.1802 102.54C67.7073 101.736 64.5768 97.7627 61.1906 93.7246L55.009 86.3516L73.853 70.5273L92.697 54.7031L98.8786 62.0752C102.265 66.1143 105.631 69.8896 106.339 70.4951C107.965 71.8115 109.793 72.3164 111.718 71.9795C113.137 71.709 113.345 71.5742 118.845 67.0752C123.545 63.249 124.66 62.2324 125.326 61.1123C126.805 58.7109 126.521 55.7881 124.513 53.3926L123.43 52.1016L127.435 48.7383C132.57 44.4268 133.264 43.2432 132.544 39.8467C132.282 38.626 131.9 38.0264 128.171 33.4355L124.092 28.3789L128.626 24.4512C133.066 20.6025 133.16 20.5234 133.135 19.584C133.126 18.7109 132.736 18.1982 126.87 11.2012C121.003 4.2041 120.566 3.73047 119.709 3.57031C118.789 3.38281 118.695 3.46191 114.136 7.16895L109.484 10.9561L105.216 6.05762C101.346 1.58496 100.823 1.10449 99.6664 0.634766C96.4493 -0.665039 95.1646 -0.186523 90.0297 4.12598L86.0253 7.48828L84.9425 6.19727C82.9344 3.80176 80.1072 3.01562 77.487 4.05566C76.2692 4.51758 75.0756 5.44043 70.4944 9.40723C65.1122 14.0469 64.9435 14.2285 64.4305 15.5801C63.765 17.4189 63.9446 19.3086 64.9574 21.1396C65.4302 21.9424 68.5608 25.916 71.947 29.9541L78.1286 37.3271L59.2846 53.1514L40.4406 68.9766L34.259 61.6035C30.8728 57.5645 27.5067 53.7891 26.7983 53.1836C25.173 51.8682 23.3446 51.3623 21.4191 51.6992C20.0005 51.9697 19.816 52.085 14.147 56.7656C9.49078 60.5957 8.20721 61.7939 7.6897 62.708ZM22.4909 56.2812L23.3044 56.1982L43.956 80.8291L64.6273 105.483L64.3572 106.311C64.1382 107.055 63.3296 107.813 58.9364 111.383C54.1428 115.288 53.7227 115.601 53.0621 115.436C52.4448 115.273 49.2477 111.556 31.9429 90.917C10.7205 65.6055 11.0709 66.0713 11.7611 64.9316C11.8904 64.7021 14.1633 62.6738 16.8251 60.4385C20.8333 57.0322 21.7874 56.3516 22.4909 56.2812ZM80.0755 8.24414C81.1608 8.5332 121.558 56.7148 121.654 57.834C121.702 58.5137 121.322 58.874 116.646 62.9199C112.371 66.6299 111.484 67.2949 110.713 67.3818L109.853 67.5049L89.1816 42.8506L68.53 18.2188L68.7568 17.3887C68.9484 16.707 69.7099 15.9883 74.1541 12.3359C78.9948 8.39062 79.4149 8.07812 80.0755 8.24414ZM12.5709 75.8545C13.2666 75.8711 14.0383 76.7432 28.3703 93.8369C42.1118 110.227 43.4467 111.866 43.4044 112.582C43.3896 113.234 42.9815 113.657 40.1078 116.07C38.294 117.594 36.5232 118.881 36.1656 118.98C35.5212 119.122 35.1275 118.652 20.1655 100.808C5.77429 83.6426 4.83319 82.4727 5.05646 81.9248C5.15033 81.6064 6.7243 80.084 8.51447 78.5811C11.2469 76.2861 11.9419 75.8232 12.5709 75.8545ZM96.9719 4.69824C97.6163 4.55664 98.0101 5.02637 112.972 22.8721C127.934 40.7168 128.328 41.1865 128.077 41.7969C127.917 42.1318 126.366 43.6338 124.576 45.1377C121.891 47.3926 121.196 47.8564 120.567 47.8242C119.871 47.8086 119.099 46.9355 104.767 29.8418C91.0258 13.4531 89.691 11.8125 89.7332 11.0967C89.7479 10.4443 90.1561 10.0215 93.0298 7.6084C94.8436 6.08496 96.6144 4.79785 96.9719 4.69824ZM16.3967 103.972L20.7278 109.138L17.4301 111.907L14.1324 114.676L9.80127 109.511L5.47015 104.345L8.76782 101.575L12.0656 98.8066L16.3967 103.972ZM85.4128 46.0146L89.7439 51.1807L70.8999 67.0049L52.0559 82.8301L47.7248 77.6641L43.3937 72.498L62.2377 56.6738L81.0817 40.8496L85.4128 46.0146ZM123.336 14.168L127.667 19.334L124.37 22.1035L121.072 24.873L116.741 19.707L112.41 14.541L115.708 11.7725L119.005 9.00293L123.336 14.168Z" fill="#FFFFFF" fill-opacity="1.000000" fill-rule="nonzero"/>
</svg>
