<svg width="9.000000" height="88.000000" viewBox="0 0 9 88" fill="none" xmlns="http://www.w3.org/2000/svg" xmlns:xlink="http://www.w3.org/1999/xlink">
	<desc>
			Created with Pixso.
	</desc>
	<defs/>
	<path id="Vector" d="M5.59668 40.8618L5.65112 81.7466L6.53809 79.835C7.02686 78.7778 7.44312 77.8784 7.47949 77.8335C7.56982 77.7212 9 78.7778 9 78.9805C9 79.1602 5.07178 87.7061 4.85449 87.998C4.74585 88.1333 0.256592 80.2622 0.00317383 79.4751C-0.0332031 79.3403 0.256592 78.958 0.654785 78.6431L1.39697 78.0356L2.2478 79.5649C2.73657 80.397 3.26147 81.3418 3.42432 81.6562C3.71411 82.1738 3.73218 79.8125 3.73218 41.0869L3.75024 0L4.65552 0L5.56055 0L5.59668 40.8618Z" fill="#FFFFFF" fill-opacity="1.000000" fill-rule="nonzero"/>
</svg>
