<svg width="26.500000" height="26.500000" viewBox="0 0 26.5 26.5" fill="none" xmlns="http://www.w3.org/2000/svg" xmlns:xlink="http://www.w3.org/1999/xlink">    
	<defs/>
	<path id="Vector" d="M17.1786 17.1782C18.2205 16.1365 18.8058 14.7234 18.8058 13.25C18.8058 11.7764 18.2205 10.3633 17.1786 9.32153C16.1368 8.27954 14.7237 7.69434 13.2502 7.69434C11.7769 7.69434 10.3638 8.27954 9.3219 9.32153C8.28003 10.3633 7.6947 11.7764 7.6947 13.25C7.6947 14.7234 8.28003 16.1365 9.3219 17.1782C10.3638 18.2202 11.7769 18.8054 13.2502 18.8054C14.7237 18.8054 16.1368 18.2202 17.1786 17.1782Z" stroke="#FFFFFF" stroke-opacity="1.000000" stroke-width="1.500000" stroke-linejoin="round"/>
	<path id="Vector" d="M0.75 7.69434C0.75 5.85278 1.48163 4.08643 2.784 2.78394C4.0863 1.48169 5.85266 0.75 7.69446 0.75L18.8055 0.75C20.6473 0.75 22.4137 1.48169 23.716 2.78394C25.0184 4.08643 25.75 5.85278 25.75 7.69434L25.75 18.8057C25.75 20.6472 25.0184 22.4136 23.716 23.7161C22.4137 25.0183 20.6473 25.75 18.8055 25.75L7.69446 25.75C5.85266 25.75 4.0863 25.0183 2.784 23.7161C1.48163 22.4136 0.75 20.6472 0.75 18.8057L0.75 7.69434Z" stroke="#FFFFFF" stroke-opacity="1.000000" stroke-width="1.500000"/>
	<path id="Vector" d="M20.8889 5.62451L20.9022 5.60986" stroke="#FFFFFF" stroke-opacity="1.000000" stroke-width="1.500000" stroke-linejoin="round" stroke-linecap="round"/>
</svg>
