<svg width="28.000000" height="20.000000" viewBox="0 0 28 20" fill="none" xmlns="http://www.w3.org/2000/svg" xmlns:xlink="http://www.w3.org/1999/xlink">
	<desc>
			Created with Pixso.
	</desc>
	<defs/>
	<path id="Vector" d="M3 0C1.35547 0 0 1.35498 0 3L0 17C0 18.645 1.35547 20 3 20L25 20C26.6445 20 28 18.645 28 17L28 3C28 1.35498 26.6445 0 25 0L3 0ZM3 2L25 2C25.5664 2 26 2.43408 26 3L26 17C26 17.5659 25.5664 18 25 18L3 18C2.43359 18 2 17.5659 2 17L2 3C2 2.43408 2.43359 2 3 2ZM9 4C6.7998 4 5 5.7998 5 8C5 9.11279 5.47656 10.1172 6.21875 10.8442C5.53809 11.3032 4.98047 11.9224 4.59375 12.6465C4.20703 13.3711 4.00293 14.1787 4 15L6 15C6 13.332 7.33203 12 9 12C10.668 12 12 13.332 12 15L14 15C13.9971 14.1787 13.793 13.3711 13.4062 12.6465C13.0195 11.9224 12.4619 11.3032 11.7812 10.8442C12.5234 10.1172 13 9.11377 13 8C13 5.7998 11.2002 4 9 4ZM16 5L16 7L24 7L24 5L16 5ZM9 6C10.1172 6 11 6.88281 11 8C11 9.11719 10.1172 10 9 10C7.88281 10 7 9.11719 7 8C7 6.88281 7.88281 6 9 6ZM16 9L16 11L24 11L24 9L16 9ZM16 13L16 15L21 15L21 13L16 13Z" fill="#FFFFFF" fill-opacity="1.000000" fill-rule="nonzero"/>
</svg>
