<svg width="9" height="17" viewBox="0 0 9 17" fill="none" xmlns="http://www.w3.org/2000/svg">
<path d="M0.0739031 16.5496C0.209578 16.8732 0.565137 17.0567 0.930053 16.9843C1.08912 16.9553 1.54293 16.5014 5.02366 12.9133C8.49973 9.32032 8.9395 8.85188 8.96757 8.68769C9.05178 8.23374 9.27634 8.49935 5.02366 4.10477C0.770988 -0.28499 1.02362 -0.0531883 0.58385 0.0337372C0.354609 0.0772018 0.0739031 0.366955 0.0317974 0.603586C-0.0524139 1.05753 -0.244228 0.825729 3.62482 4.82915L7.18977 8.50901L3.64821 12.1696C1.66456 14.2171 0.0832605 15.8832 0.0551901 15.9605C-0.0103083 16.144 -0.000951767 16.371 0.0739031 16.5496Z" fill="black"/>
</svg>
