<svg width="10" height="10" viewBox="0 0 10 10" fill="none" xmlns="http://www.w3.org/2000/svg">
<g clip-path="url(#clip0_381_687)">
<path d="M5.00011 4.7219C5.38468 4.7219 5.76062 4.60786 6.08038 4.3942C6.40015 4.18054 6.64937 3.87686 6.79654 3.52156C6.94371 3.16626 6.98222 2.7753 6.90719 2.39811C6.83216 2.02093 6.64697 1.67446 6.37504 1.40252C6.1031 1.13059 5.75664 0.945397 5.37945 0.870371C5.00227 0.795344 4.6113 0.83385 4.256 0.981021C3.9007 1.12819 3.59702 1.37742 3.38336 1.69718C3.1697 2.01694 3.05566 2.39288 3.05566 2.77745C3.05566 3.29315 3.26052 3.78773 3.62518 4.15238C3.98983 4.51704 4.48441 4.7219 5.00011 4.7219ZM5.00011 1.38856C5.2748 1.38856 5.54333 1.47002 5.77173 1.62263C6.00014 1.77525 6.17815 1.99216 6.28327 2.24595C6.3884 2.49973 6.4159 2.77899 6.36231 3.04841C6.30872 3.31783 6.17644 3.56531 5.9822 3.75955C5.78796 3.95379 5.54049 4.08606 5.27107 4.13966C5.00165 4.19325 4.72239 4.16574 4.4686 4.06062C4.21482 3.9555 3.9979 3.77748 3.84529 3.54908C3.69268 3.32068 3.61122 3.05215 3.61122 2.77745C3.61122 2.4091 3.75755 2.05583 4.01802 1.79536C4.27848 1.53489 4.63175 1.38856 5.00011 1.38856Z" fill="white"/>
<path d="M8.46367 6.76898C8.0182 6.29815 7.48139 5.92312 6.88605 5.66682C6.2907 5.41051 5.64934 5.27832 5.00117 5.27832C4.353 5.27832 3.71164 5.41051 3.1163 5.66682C2.52096 5.92312 1.98414 6.29815 1.53867 6.76898C1.44209 6.87214 1.38845 7.00823 1.38867 7.14954V8.61065C1.38867 8.75799 1.4472 8.8993 1.55139 9.00349C1.65558 9.10767 1.79689 9.1662 1.94423 9.1662H8.05534C8.20268 9.1662 8.34399 9.10767 8.44818 9.00349C8.55236 8.8993 8.6109 8.75799 8.6109 8.61065V7.14954C8.61187 7.0086 8.55924 6.87257 8.46367 6.76898ZM8.05534 8.61065H1.94423V7.14676C2.3379 6.73223 2.81181 6.40213 3.33711 6.17656C3.8624 5.95099 4.4281 5.83467 4.99978 5.83467C5.57146 5.83467 6.13717 5.95099 6.66246 6.17656C7.18776 6.40213 7.66166 6.73223 8.05534 7.14676V8.61065Z" fill="white"/>
</g>
<defs>
<clipPath id="clip0_381_687">
<rect width="10" height="10" fill="white"/>
</clipPath>
</defs>
</svg>
