<svg width="9" height="17" viewBox="0 0 9 17" fill="none" xmlns="http://www.w3.org/2000/svg">
<path d="M8.9261 0.450351C8.79042 0.126793 8.43486 -0.0567169 8.06995 0.0157213C7.91088 0.0446966 7.45707 0.498643 3.97634 4.08675C0.500274 7.67968 0.0605033 8.14812 0.0324328 8.31231C-0.0517786 8.76626 -0.276342 8.50065 3.97634 12.8952C8.22901 17.285 7.97638 17.0532 8.41615 16.9663C8.64539 16.9228 8.9261 16.633 8.9682 16.3964C9.05241 15.9425 9.24423 16.1743 5.37518 12.1709L1.81023 8.49099L5.35179 4.83045C7.33544 2.78286 8.91674 1.11678 8.94481 1.03951C9.01031 0.856005 9.00095 0.629031 8.9261 0.450351Z" fill="black"/>
</svg>
