<svg width="80" height="80" viewBox="0 0 80 80" fill="none" xmlns="http://www.w3.org/2000/svg">
<path d="M39.9996 17.1431C37.1741 17.1431 34.4121 17.9809 32.0629 19.5506C29.7136 21.1204 27.8826 23.3515 26.8013 25.9619C25.7201 28.5722 25.4372 31.4446 25.9884 34.2158C26.5396 36.9869 27.9002 39.5324 29.8981 41.5303C31.896 43.5282 34.4414 44.8888 37.2126 45.44C39.9837 45.9912 42.8561 45.7083 45.4665 44.6271C48.0769 43.5458 50.308 41.7148 51.8777 39.3655C53.4475 37.0162 54.2853 34.2542 54.2853 31.4288C54.2853 27.64 52.7802 24.0063 50.1011 21.3273C47.422 18.6482 43.7884 17.1431 39.9996 17.1431Z" fill="white"/>
<path d="M40 0C32.0888 0 24.3552 2.34596 17.7772 6.74121C11.1992 11.1365 6.07234 17.3836 3.04484 24.6927C0.0173313 32.0017 -0.774802 40.0444 0.768607 47.8036C2.31202 55.5628 6.12164 62.6902 11.7157 68.2843C17.3098 73.8783 24.4372 77.688 32.1964 79.2314C39.9556 80.7748 47.9983 79.9827 55.3073 76.9552C62.6164 73.9277 68.8635 68.8008 73.2588 62.2228C77.654 55.6448 80 47.9112 80 40C79.9879 29.395 75.7697 19.2279 68.2709 11.7291C60.7721 4.23026 50.605 0.0120992 40 0ZM62.8371 65.5028C62.7802 61.7547 61.2529 58.179 58.5844 55.5464C55.916 52.9137 52.32 51.4349 48.5714 51.4286H31.4286C27.6805 51.4356 24.0853 52.9148 21.4174 55.5474C18.7496 58.18 17.2227 61.7552 17.1657 65.5028C11.9845 60.8764 8.33067 54.7853 6.68811 48.0362C5.04556 41.287 5.49173 34.1981 7.96755 27.7082C10.4434 21.2182 14.8321 15.6333 20.5525 11.693C26.2729 7.75276 33.0553 5.64293 40.0014 5.64293C46.9476 5.64293 53.7299 7.75276 59.4504 11.693C65.1708 15.6333 69.5595 21.2182 72.0353 27.7082C74.5111 34.1981 74.9573 41.287 73.3148 48.0362C71.6722 54.7853 68.0184 60.8764 62.8371 65.5028Z" fill="white"/>
</svg>
