<svg width="22.000000" height="22.000000" viewBox="0 0 22 22" fill="none" xmlns="http://www.w3.org/2000/svg" xmlns:xlink="http://www.w3.org/1999/xlink">
	<desc>
			Created with Pixso.
	</desc>
	<defs/>
	<path id="Vector" d="M8 19L5 19C3.93945 19 2.92188 18.5786 2.17188 17.8286C1.42188 17.0781 1 16.061 1 15L1 6C1 4.93896 1.42188 3.92188 2.17188 3.17139C2.92188 2.42139 3.93945 2 5 2L16 2C17.0605 2 18.0781 2.42139 18.8281 3.17139C19.5781 3.92188 20 4.93896 20 6L20 9M7 1L7 3M14 1L14 3M1 7L20 7M17.5 14.6431L16 16.1431" stroke="#FFFFFF" stroke-opacity="1.000000" stroke-width="2.000000" stroke-linejoin="round"/>
	<path id="Vector" d="M16 21C13.2383 21 11 18.7612 11 16C11 13.2388 13.2383 11 16 11C18.7617 11 21 13.2388 21 16C21 18.7612 18.7617 21 16 21Z" stroke="#FFFFFF" stroke-opacity="1.000000" stroke-width="2.000000" stroke-linejoin="round"/>
</svg>
