<svg width="201.269043" height="19.720215" viewBox="0 0 201.269 19.7202" fill="none" xmlns="http://www.w3.org/2000/svg" xmlns:xlink="http://www.w3.org/1999/xlink">
	
	<defs/>
	<path id="flex force" d="M3.11996 0.000135422L22.56 0.000135422L21.76 5.00014L2.31996 5.00014L3.11996 0.000135422ZM-3.90597e-05 19.6401L2.07996 6.40014L7.39996 6.40014L5.31996 19.6401L-3.90597e-05 19.6401ZM7.91996 12.4801L8.63996 7.64014L18.8 7.64014L18 12.4801L7.91996 12.4801ZM29.8853 0.000135422L29.0853 5.00014L23.6853 5.00014L24.4853 0.000135422L29.8853 0.000135422ZM27.4853 14.6401L36.0853 14.6801L35.3253 19.6401L25.2453 19.6401C24.2319 19.6401 23.3919 19.2535 22.7253 18.4801C22.0586 17.7068 21.8053 16.8135 21.9653 15.8001L23.4853 6.40014L28.8053 6.40014L27.4853 14.6401ZM40.3447 0.000135422L59.7846 0.000135422L59.0247 5.00014L39.5446 5.00014L40.3447 0.000135422ZM44.6646 6.40014L43.3447 14.6801L57.4246 14.6801L56.6646 19.6401L41.1046 19.6401C40.0913 19.6401 39.2513 19.2535 38.5846 18.4801C37.918 17.7068 37.6646 16.8135 37.8246 15.8001L39.3447 6.40014L44.6646 6.40014ZM45.9046 7.64014L56.0647 7.64014L55.2646 12.4801L45.1446 12.4801L45.9046 7.64014ZM80.4559 0.000135422L72.7759 10.6401L77.6959 19.6401L71.6959 19.6401L68.3759 13.4801L63.8959 19.7201L58.1359 19.7201L65.8959 8.96014L61.0559 0.000135422L67.0159 0.000135422L70.3359 6.08014L74.7359 0.000135422L80.4559 0.000135422ZM93.1981 0.000135422L112.638 0.000135422L111.838 5.00014L92.3981 5.00014L93.1981 0.000135422ZM90.0781 19.6401L92.1581 6.40014L97.4781 6.40014L95.3981 19.6401L90.0781 19.6401ZM97.9981 12.4801L98.7181 7.64014L108.878 7.64014L108.078 12.4801L97.9981 12.4801ZM130.123 0.000135422C131.137 0.000135422 131.977 0.386803 132.643 1.16014C133.31 1.93347 133.563 2.8268 133.403 3.84014L131.323 16.9201C131.243 17.4535 131.043 17.9335 130.723 18.3601C130.43 18.7868 130.043 19.1201 129.563 19.3601C129.083 19.6001 128.577 19.7201 128.043 19.7201L115.323 19.7201C114.283 19.7201 113.43 19.3335 112.763 18.5601C112.123 17.7868 111.883 16.8935 112.043 15.8801L114.123 2.80013C114.23 2.00014 114.59 1.33347 115.203 0.800137C115.843 0.266802 116.577 0.000135422 117.403 0.000135422L130.123 0.000135422ZM126.363 14.7201L127.883 5.08014L119.083 5.08014L117.563 14.7201L126.363 14.7201ZM152.505 0.000135422C153.519 0.000135422 154.359 0.386803 155.025 1.16014C155.692 1.93347 155.945 2.8268 155.785 3.84014L154.425 12.3601C154.319 13.0268 154.012 13.5868 153.505 14.0401C152.999 14.4668 152.412 14.6801 151.745 14.6801L154.425 19.6401L147.905 19.6401L145.505 14.6801L139.945 14.6801L139.145 19.6401L133.825 19.6401L135.385 9.64014L149.545 9.64014L150.185 5.00014L136.145 5.00014L136.945 0.000135422L152.505 0.000135422ZM175.084 0.000135422C176.124 0.000135422 176.964 0.386803 177.604 1.16014C178.271 1.93347 178.524 2.8268 178.364 3.84014L177.644 8.60014L172.284 8.60014L172.884 5.00014L158.724 5.00014L159.524 0.000135422L175.084 0.000135422ZM171.324 14.6801L171.684 12.4801L176.964 12.4801L176.284 16.8401C176.151 17.6401 175.764 18.3068 175.124 18.8401C174.511 19.3735 173.804 19.6401 173.004 19.6401L160.284 19.6401C159.271 19.6401 158.431 19.2535 157.764 18.4801C157.098 17.7068 156.844 16.8135 157.004 15.8001L158.524 6.40014L163.844 6.40014L162.524 14.6801L171.324 14.6801ZM181.829 0.000135422L201.269 0.000135422L200.509 5.00014L181.029 5.00014L181.829 0.000135422ZM186.149 6.40014L184.829 14.6801L198.909 14.6801L198.149 19.6401L182.589 19.6401C181.576 19.6401 180.736 19.2535 180.069 18.4801C179.402 17.7068 179.149 16.8135 179.309 15.8001L180.829 6.40014L186.149 6.40014ZM187.389 7.64014L197.549 7.64014L196.749 12.4801L186.629 12.4801L187.389 7.64014Z" fill="#FFFFFF" fill-opacity="1.000000" fill-rule="evenodd"/>
</svg>
