<svg width="31.000000" height="25.000000" viewBox="0 0 31 25" fill="none" xmlns="http://www.w3.org/2000/svg" xmlns:xlink="http://www.w3.org/1999/xlink">
	<defs/>
	<path id="Vector" d="M27.7889 0.171143C28.1701 0.0195312 28.5873 -0.0327148 28.9971 0.0197754C29.4069 0.0722656 29.7943 0.227295 30.119 0.468994C30.4437 0.710693 30.6938 1.03027 30.8434 1.39429C30.993 1.7583 31.0364 2.15332 30.9693 2.53857L27.4712 22.5691C27.1319 24.5012 24.8862 25.6094 23.0091 24.647C21.439 23.8418 19.1069 22.6011 17.0092 21.3069C15.9604 20.6589 12.7476 18.584 13.1425 17.1077C13.4818 15.8452 18.8801 11.1016 21.9649 8.28101C23.1757 7.1731 22.6235 6.53394 21.1937 7.55322C17.6431 10.0837 11.9425 13.9319 10.0577 15.0154C8.39502 15.9705 7.5282 16.1335 6.4917 15.9705C4.60071 15.6733 2.84705 15.2134 1.41577 14.6528C-0.518433 13.8955 -0.424316 11.3855 1.41418 10.6545L27.7889 0.171143Z" fill="#FFFFFF" fill-opacity="1.000000" fill-rule="evenodd"/>
</svg>
