<svg width="21.000000" height="20.000000" viewBox="0 0 21 20" fill="none" xmlns="http://www.w3.org/2000/svg" xmlns:xlink="http://www.w3.org/1999/xlink">
	<desc>
			Created with Pixso.
	</desc>
	<defs/>
	<path id="Vector" d="M8 19L5 19C3.93945 19 2.92188 18.5781 2.17188 17.8281C1.42188 17.0781 1 16.0605 1 15L1 6C1 4.93945 1.42188 3.92188 2.17188 3.17188C2.92188 2.42188 3.93945 2 5 2L16 2C17.0605 2 18.0781 2.42188 18.8281 3.17188C19.5781 3.92188 20 4.93945 20 6L20 9M7 1L7 3M14 1L14 3M1 7L20 7M17.5 14.6426L16 16.1426" stroke="#FFFFFF" stroke-opacity="1.000000" stroke-width="2.000000" stroke-linejoin="round"/>
</svg>
