<svg width="40.000000" height="25.000000" viewBox="0 0 40 25" fill="none" xmlns="http://www.w3.org/2000/svg" xmlns:xlink="http://www.w3.org/1999/xlink">
	
	<defs/>
	<path id="vk" d="M39.6821 20.3501C38.7498 18.5098 37.5214 16.8286 36.0438 15.3711C35.5496 14.8237 35.0322 14.2969 34.4928 13.792L34.4277 13.73C34.2275 13.5398 34.0298 13.3472 33.8347 13.1521C35.8547 10.3984 37.5831 7.4502 38.9932 4.35303L39.0497 4.22876L39.0891 4.09766C39.2759 3.48779 39.4884 2.32886 38.7344 1.28052C37.9529 0.19873 36.7036 0.00390625 35.8655 0.00390625L32.0147 0.00390625C31.2084 -0.0322266 30.4111 0.182861 29.737 0.61792C29.0629 1.05298 28.5464 1.68604 28.2616 2.42627C27.4329 4.36084 26.3953 6.20288 25.1666 7.9209L25.1666 3.49805C25.1666 2.92676 25.1117 1.96924 24.4862 1.16309C23.739 0.195312 22.6576 0.00390625 21.907 0.00390625L15.7957 0.00390625C14.9982 -0.0141602 14.2243 0.269287 13.6341 0.795166C13.0439 1.32129 12.6827 2.04956 12.6252 2.82935L12.6201 2.90503L12.6201 2.98047C12.6201 3.79541 12.9492 4.39673 13.2131 4.77466C13.3313 4.94434 13.4564 5.09888 13.537 5.19629L13.5541 5.21802C13.6398 5.32227 13.6964 5.39111 13.7529 5.46851C13.9037 5.66675 14.1179 5.97583 14.1796 6.77197L14.1796 9.24634C12.9529 7.23291 11.947 5.09766 11.1788 2.87646L11.1652 2.83936L11.1514 2.8042C10.9423 2.26831 10.6082 1.48877 9.93811 0.894287C9.15662 0.197021 8.2312 0.00390625 7.38971 0.00390625L3.48236 0.00390625C2.63062 0.00390625 1.60406 0.19873 0.838013 0.98999C0.0856934 1.76929 0 2.70337 0 3.19727L0 3.42236L0.0479736 3.64087C1.12988 8.56396 3.35938 13.175 6.56201 17.113C8.02618 19.3765 10.014 21.2695 12.3642 22.6389C14.7144 24.0083 17.3607 24.8154 20.0887 24.9949L20.1589 25L20.2309 25C21.4751 25 22.7724 24.8943 23.7476 24.2576C25.062 23.3975 25.1666 22.0789 25.1666 21.4202L25.1666 19.5085C25.5042 19.7773 25.9223 20.137 26.4348 20.6206C27.0551 21.2288 27.5486 21.7561 27.972 22.2166L28.1982 22.4617C28.5272 22.8213 28.8511 23.1758 29.1459 23.4663C29.5161 23.8308 29.9736 24.2324 30.546 24.5295C31.1682 24.8506 31.821 24.9966 32.5134 24.9966L36.4225 24.9966C37.2468 24.9966 38.4276 24.8052 39.2588 23.8611C40.1636 22.833 40.0951 21.5715 39.8106 20.666L39.7592 20.5029L39.6821 20.3501ZM29.8794 20.5283C29.3483 19.9463 28.8014 19.3782 28.2393 18.825L28.2342 18.8198C25.9086 16.6226 24.8238 16.2412 24.056 16.2412C23.6464 16.2412 23.1957 16.2849 22.9026 16.6445C22.7708 16.8159 22.6842 17.0168 22.6508 17.229C22.6094 17.4756 22.5911 17.7251 22.5959 17.9749L22.5959 21.4202C22.5959 21.8486 22.5239 22.0283 22.3217 22.1594C22.0527 22.3357 21.4785 22.4785 20.2463 22.4785C17.9057 22.3225 15.6363 21.624 13.6247 20.4407C11.6131 19.2573 9.91669 17.623 8.67505 15.6719L8.66132 15.6499L8.64423 15.6299C5.66077 11.9897 3.58148 7.71973 2.57062 3.15698C2.57751 2.93848 2.62549 2.80591 2.70428 2.72534C2.78485 2.64136 2.98193 2.52368 3.48236 2.52368L7.38971 2.52368C7.8233 2.52368 8.0495 2.61768 8.21234 2.7605C8.39398 2.92505 8.55505 3.20239 8.74701 3.69629C9.70673 6.46118 11.0023 9.0481 12.2311 10.9497C12.8446 11.8989 13.4479 12.6902 13.9929 13.2495C14.2653 13.5283 14.5309 13.7603 14.7863 13.9248C15.0314 14.0828 15.3107 14.2087 15.5986 14.2087C15.7495 14.2087 15.926 14.1919 16.0956 14.1196C16.2789 14.0403 16.4297 13.9031 16.524 13.73C16.7006 13.4141 16.7503 12.9487 16.7503 12.3391L16.7503 6.67285C16.6594 5.29883 16.2361 4.52441 15.8248 3.9751C15.7416 3.86523 15.6558 3.75708 15.5678 3.65088L15.5455 3.62402C15.4724 3.53687 15.4027 3.44727 15.3364 3.35522C15.2521 3.25244 15.2013 3.1272 15.1907 2.99561C15.2042 2.8623 15.2692 2.73877 15.3724 2.65063C15.4756 2.56274 15.6093 2.5166 15.746 2.52197L21.907 2.52197C22.26 2.52197 22.3782 2.60596 22.4382 2.68481C22.5239 2.79419 22.5959 3.021 22.5959 3.49805L22.5959 11.1042C22.5959 12.0081 23.0209 12.6196 23.6379 12.6196C24.3474 12.6196 24.8598 12.198 25.7544 11.321L25.7698 11.3042L25.7835 11.2891C27.7903 8.89087 29.4299 6.21851 30.6506 3.35693L30.6574 3.33667C30.7491 3.08398 30.9227 2.86743 31.1517 2.72021C31.3807 2.57324 31.6525 2.50342 31.9256 2.52197L35.8672 2.52197C36.402 2.52197 36.5768 2.65625 36.635 2.73535C36.695 2.81934 36.7379 2.99902 36.635 3.35181C35.2273 6.43652 33.4871 9.36499 31.444 12.0869L31.4304 12.1072C31.2333 12.4045 31.0156 12.7339 30.9847 13.1101C30.9505 13.5166 31.1287 13.8845 31.4423 14.281C31.6703 14.6101 32.1415 15.062 32.6197 15.5205L32.6642 15.5642C33.1647 16.0447 33.7079 16.5654 34.1432 17.0693L34.1552 17.0813L34.1672 17.0947C35.4652 18.3638 36.5446 19.8308 37.3633 21.4387C37.4936 21.8755 37.4148 22.1006 37.312 22.2166C37.1937 22.3508 36.9281 22.4768 36.4243 22.4768L32.5134 22.4768C32.2469 22.4832 31.9832 22.4226 31.7474 22.3005C31.4584 22.1357 31.1962 21.9297 30.9694 21.689C30.7242 21.4487 30.4586 21.1582 30.133 20.8037L29.8794 20.5283Z" fill="#FFFFFF" fill-opacity="1.000000" fill-rule="evenodd"/>
</svg>
