<svg width="20.000000" height="20.000000" viewBox="0 0 20 20" fill="none" xmlns="http://www.w3.org/2000/svg" xmlns:xlink="http://www.w3.org/1999/xlink">
	<desc>
			Created with Pixso.
	</desc>
	<defs/>
	<path id="Vector" d="M19.998 9.99854L19.998 9.99365C19.998 7.03467 18.71 4.37744 16.6641 2.5498L16.6543 2.5415C16.6289 2.51416 16.6006 2.49023 16.5703 2.46924L16.5684 2.46826C14.752 0.873047 12.415 -0.00488281 9.99707 0C7.4707 0 5.16504 0.938477 3.40625 2.48682L3.41699 2.47754C3.39648 2.49365 3.37695 2.51172 3.35938 2.53174C2.30176 3.46729 1.45605 4.61816 0.876953 5.90576C0.297852 7.19336 -0.000976562 8.58936 0 10.0015C0 12.9595 1.28613 15.6167 3.33008 17.4453L3.34082 17.4536C3.36719 17.4834 3.39648 17.5107 3.42871 17.5342L3.43066 17.5352C5.24707 19.1279 7.58203 20.0044 9.99707 20C12.4248 20.0039 14.7695 19.1191 16.5898 17.5132L16.5791 17.5225C17.6543 16.5879 18.5156 15.4326 19.1064 14.1357C19.6963 12.8389 20.001 11.4302 20 10.0054L20 9.99951L19.998 9.99854ZM16.2803 16.5024C15.7852 16.1021 15.252 15.75 14.6895 15.4512L14.6357 15.4243C15.1465 13.9521 15.4541 12.2544 15.4824 10.4888L15.4824 10.4756L19.0332 10.4756C18.9141 12.7598 17.9307 14.9136 16.2832 16.5L16.2803 16.5024ZM10.4756 15.2485C11.5449 15.3062 12.5439 15.541 13.4658 15.9233L13.4053 15.9019C12.667 17.585 11.6279 18.7417 10.4756 18.9961L10.4756 15.2485ZM10.4756 14.2954L10.4756 10.4756L14.5322 10.4756C14.5 12.0571 14.2256 13.625 13.7188 15.1235L13.751 15.0142C12.7168 14.5894 11.6162 14.3462 10.499 14.2959L10.4766 14.2954L10.4756 14.2954ZM10.4756 9.52197L10.4756 5.70215C11.623 5.6499 12.7529 5.39844 13.8145 4.95996L13.749 4.98389C14.2109 6.33301 14.4951 7.88818 14.5322 9.50439L14.5322 9.52197L10.4756 9.52197ZM10.4756 4.74902L10.4756 1.00342C11.6279 1.25732 12.667 2.40918 13.4053 4.09717C12.5439 4.45557 11.5449 4.68994 10.5 4.74805L10.4756 4.74902ZM12.8535 1.41602C13.8359 1.74316 14.7539 2.2373 15.5684 2.87549L15.5498 2.86084C15.1807 3.15088 14.7666 3.42383 14.3301 3.66162L14.2832 3.68506C13.9297 2.85205 13.4453 2.08203 12.8467 1.4043L12.8535 1.41309L12.8535 1.41602ZM9.52051 1.00586L9.52051 4.74902C8.49316 4.69678 7.48145 4.46826 6.53125 4.07422L6.59082 4.0957C7.33301 2.4126 8.37012 1.25684 9.52246 1.00244L9.52051 1.00586ZM5.71484 3.68213C5.2627 3.43945 4.83203 3.15869 4.42773 2.84326L4.44824 2.8584C5.23926 2.23828 6.12891 1.75635 7.0791 1.43164L7.14258 1.4126C6.55957 2.07178 6.08496 2.81934 5.73535 3.62744L5.71484 3.68213ZM9.52246 5.70166L9.52246 9.52148L5.46582 9.52148C5.50293 7.88721 5.78711 6.33203 6.28223 4.87402L6.24902 4.98291C7.2832 5.40771 8.38281 5.65039 9.5 5.70068L9.52246 5.70166ZM9.52246 10.4746L9.52246 14.2944C8.375 14.3467 7.24512 14.5981 6.18359 15.0371L6.24902 15.0127C5.78711 13.6646 5.50293 12.1089 5.46582 10.4922L5.46582 10.4746L9.52246 10.4746ZM9.52246 15.2476L9.52246 18.9932C8.37012 18.7393 7.33105 17.5874 6.59277 15.8994C7.4541 15.541 8.45312 15.3076 9.49805 15.2495L9.52246 15.2476ZM7.14746 18.5811C6.16602 18.2544 5.24805 17.7617 4.43262 17.1245L4.45312 17.1392C4.82227 16.8491 5.23633 16.5762 5.67285 16.3384L5.71973 16.3149C6.06934 17.1479 6.55469 17.9175 7.15527 18.5928L7.14746 18.584L7.14746 18.5811ZM14.2842 16.3145C14.7676 16.5767 15.1816 16.8491 15.5703 17.1533L15.5508 17.1387C14.7598 17.7583 13.8701 18.2407 12.9189 18.5649L12.8555 18.584C13.4385 17.9248 13.9131 17.1777 14.2627 16.3701L14.2842 16.3159L14.2842 16.3145ZM19.0332 9.52197L15.4824 9.52197C15.457 7.79785 15.1602 6.08887 14.6016 4.45752L14.6357 4.57227C15.2236 4.26221 15.7812 3.89648 16.2998 3.479L16.2793 3.49414C17.9238 5.07471 18.9072 7.22021 19.0322 9.49805L19.0332 9.52197ZM3.71777 3.49463C4.19824 3.88477 4.7373 4.24219 5.30859 4.54639L5.36328 4.57324C4.85254 6.04541 4.54492 7.74316 4.51562 9.50879L4.51562 9.52197L0.963867 9.52197C1.08398 7.23779 2.06738 5.08398 3.71484 3.49756L3.71777 3.49463ZM0.964844 10.4756L4.51562 10.4756C4.54102 12.1997 4.83887 13.9087 5.39746 15.54L5.36328 15.4253C4.7373 15.7578 4.19922 16.1152 3.69922 16.5186L3.71875 16.5034C2.07422 14.9229 1.09082 12.7769 0.966797 10.4995L0.96582 10.4761L0.964844 10.4756Z" fill="#FFFFFF" fill-opacity="1.000000" fill-rule="nonzero"/>
</svg>
