<svg width="141.000000" height="172.000000" viewBox="0 0 141 172" fill="none" xmlns="http://www.w3.org/2000/svg" xmlns:xlink="http://www.w3.org/1999/xlink">
	<desc>
			Created with Pixso.
	</desc>
	<defs/>
	<path id="Vector" d="M66.8604 0.355469C63.0347 1.64941 60.2971 4.02832 58.6826 7.52637C58.0156 9.03027 57.77 10.1494 57.7349 12.0039C57.7 14.417 57.6296 14.5918 56.1907 16.2012C54.2253 18.4746 51.6982 23.6172 51.0664 26.6602C49.2063 35.5449 52.2949 47.0527 58.4719 54.3291L60.3672 56.5322L60.3672 59.8203L60.3672 63.1084L50.8208 64.9277C45.5562 65.9072 40.6777 66.9912 40.0459 67.3408C38.8877 67.9014 38.0454 69.4746 27.7971 90.3232C21.7603 102.601 16.7063 113.13 16.6011 113.654C16.2852 115.333 17.4785 119.321 18.6367 120.44L19.6895 121.454L34.7812 121.56L49.8381 121.664L49.8381 124.533L49.8381 127.401L30.8154 132.648L11.7576 137.895L8.63403 139.854C6.91406 140.938 4.70312 142.547 3.6853 143.422C1.64966 145.206 0 148.074 0 149.753C0.0351562 151.432 1.1582 153.565 2.66748 154.755C4.56274 156.225 16.3203 162.101 18.2505 162.556C19.1279 162.73 22.5325 163.011 25.8315 163.15L31.8333 163.36L31.0259 164.584C28.9202 167.662 31.061 172 34.676 172C35.2727 172 40.8533 170.881 47.0654 169.552L58.437 167.068L68.615 167.453C74.2307 167.662 84.6545 167.978 91.7793 168.152C119.822 168.887 123.999 168.537 131.088 164.899C136.318 162.171 139.933 157.519 140.845 152.307C141.512 148.389 140.073 145.695 135.581 142.303C131.123 138.909 128.982 138.14 109.082 132.578L90.5508 127.401L90.5508 124.533L90.5508 121.664L105.608 121.56L120.699 121.454L121.752 120.44C122.91 119.321 124.104 115.333 123.788 113.654C123.683 113.13 118.629 102.636 112.592 90.3574C105.187 75.3164 101.326 67.8311 100.799 67.4814C100.132 67.0615 82.0222 63.249 80.478 63.2139C80.127 63.2139 80.0217 62.3037 80.0217 59.8906L80.0217 56.5322L81.917 54.3291C88.094 47.0527 91.1826 35.5449 89.3225 26.6602C88.6907 23.6172 86.1638 18.4746 84.1982 16.2012C82.7593 14.5918 82.689 14.417 82.6541 12.0039C82.5486 5.60254 77.3191 0.320312 70.7209 0.00585938C69.282 -0.0292969 67.6675 0.110352 66.8604 0.355469ZM74.6167 3.85352C77.3191 5.21777 79.2847 7.87598 79.811 10.8848C80.0217 11.9336 79.9514 12.1787 79.6006 12.0391C71.6685 8.5752 68.7205 8.5752 60.7883 12.0391C60.4375 12.1787 60.3672 11.9336 60.5779 10.8848C61.2446 7.10645 63.8069 4.30859 67.7375 3.01367C69.3521 2.48926 72.7214 2.90918 74.6167 3.85352ZM75.3186 13.2275C79.8813 14.9424 83.9175 19.3848 85.8127 24.7715C86.9358 28.0244 86.8306 28.8291 85.532 26.9395C83.3208 23.7568 79.4951 21.0635 75.4941 19.8389C73.0374 19.0693 68.615 18.9297 65.9829 19.5244C61.8765 20.4688 57.1033 23.8613 54.6814 27.5693C54.085 28.5137 53.5583 29.2832 53.5232 29.2832C53.4531 29.2832 53.5583 28.584 53.7339 27.7441C54.2603 24.9814 55.4185 22.1475 57.1033 19.6992C61.4902 13.2979 68.6853 10.7441 75.3186 13.2275ZM77.0034 23.4766C80.6184 25.2607 83.0752 27.7441 85.0405 31.6621C86.9358 35.5098 86.9709 37.3643 85.2864 42.3662C83.1104 48.8018 78.6179 54.7832 74.4412 56.8477C70.2646 58.876 65.9478 57.8271 61.9116 53.7695C57.9104 49.7461 53.9443 41.4561 53.9443 37.1543C53.9443 33.4463 57.4192 27.6396 61.2446 24.9111C64.5437 22.5322 66.6145 21.9023 70.7561 22.043C74.0552 22.1123 74.4763 22.2178 77.0034 23.4766ZM70.1946 60.5898C72.7214 60.5898 73.4937 60.4502 75.2134 59.6455L77.249 58.666L77.1438 65.7676C77.0383 72.833 77.0383 72.9033 76.0908 74.3018C74.6519 76.4707 72.9321 77.3799 70.1946 77.3799C67.4568 77.3799 65.7371 76.4707 64.2981 74.3018C63.3506 72.9033 63.3506 72.833 63.2451 65.7676L63.1399 58.666L65.1755 59.6455C66.8953 60.4502 67.6675 60.5898 70.1946 60.5898ZM60.3672 68.915C60.3672 73.1475 61.0691 75.1416 63.3506 77.415C64.7896 78.8496 65.6318 79.374 67.2112 79.8643C72.0195 81.2285 76.7227 79.1992 79.0039 74.7568C79.6357 73.498 79.8462 72.4482 79.9514 69.5801L80.0918 65.9766L81.0396 66.1523C81.5308 66.2568 82.9348 66.502 84.1282 66.7471C85.6021 67.0264 86.3743 67.3408 86.4795 67.7256C86.585 68.041 87.5325 72.9375 88.5854 78.6045L90.5508 88.959L89.884 98.5078C89.498 103.755 89.1118 108.127 89.0417 108.197C88.7959 108.442 79.3547 109.562 79.1794 109.352C79.074 109.247 78.3721 105.329 77.5649 100.642C76.7227 95.5352 75.8801 91.6523 75.5293 91.0225C74.6167 89.4834 72.897 88.749 70.1946 88.749C67.5271 88.749 65.7722 89.5186 64.8596 91.0576C64.5088 91.6523 63.6665 95.6045 62.824 100.642C62.0168 105.329 61.3149 109.247 61.2446 109.352C61.0691 109.526 51.5579 108.442 51.3472 108.197C51.2419 108.127 50.8911 103.755 50.5049 98.4727L49.8381 88.9238L51.8035 78.2549C52.8916 72.3779 53.8743 67.4814 54.0146 67.3408C54.1902 67.1318 58.6123 66.1865 59.946 66.0469C60.262 66.0117 60.3672 66.8164 60.3672 68.915ZM50.7505 68.7051C50.6453 69.2646 49.7678 73.8828 48.8203 78.9893L47.1006 88.2939L43.0642 97.7031C39.0632 107.008 38.9929 107.113 37.8347 107.323C37.2031 107.463 35.7991 107.742 34.7112 107.987L32.7107 108.372L32.9915 109.597C33.167 110.296 33.3423 110.891 33.4126 110.961C33.4827 111.03 34.9919 110.786 36.8169 110.401L40.0811 109.736L49.9785 110.996C55.3835 111.66 60.4375 112.22 61.2095 112.255C63.5962 112.29 63.7366 111.94 65.4211 101.936C66.5444 95.29 67.0708 92.7715 67.5623 92.2471C67.9131 91.8623 68.3342 91.5469 68.5098 91.5469C68.6501 91.5469 68.7905 97.0391 68.7905 103.755L68.7905 115.963L66.4741 117.396L64.1929 118.831L42.5027 118.831C25.5508 118.831 20.7073 118.727 20.4265 118.376C20.2512 118.166 19.9001 117.082 19.6545 116.033L19.2334 114.108L29.9731 92.2471C35.9045 80.2139 40.8882 70.21 41.0989 70.0352C41.3445 69.7549 48.8203 68.0059 50.6453 67.7959C50.8208 67.7607 50.856 68.1807 50.7505 68.7051ZM94.8679 68.8457C98.2021 69.4404 99.1145 69.7549 99.5007 70.3496C99.7815 70.7344 104.765 80.7734 110.556 92.5967L121.156 114.108L120.734 116.033C120.489 117.082 120.138 118.166 119.962 118.376C119.682 118.727 114.838 118.831 97.8862 118.831L76.196 118.831L73.9148 117.396L71.5984 115.963L71.5984 103.755C71.5984 97.0391 71.7388 91.5469 71.8792 91.5469C72.0547 91.5469 72.4758 91.8623 72.8267 92.2471C73.3181 92.7715 73.8445 95.29 74.9678 101.936C76.6523 111.94 76.7927 112.29 79.1794 112.255C79.9514 112.22 85.0056 111.66 90.4456 110.996L100.343 109.736L103.607 110.401C105.397 110.786 106.976 111.03 107.082 110.926C107.222 110.855 107.397 110.261 107.468 109.562L107.608 108.372L105.643 107.952C104.59 107.742 103.186 107.463 102.554 107.323C101.396 107.113 101.326 107.008 97.3596 97.7383L93.3235 88.3643L91.3933 78.3594C90.3403 72.8682 89.498 68.251 89.498 68.041C89.498 67.8662 89.7788 67.7959 90.1296 67.9014C90.4456 68.0059 92.5864 68.4258 94.8679 68.8457ZM47.9077 101.586C48.1533 105.015 48.3289 107.848 48.2937 107.883C48.0833 108.093 42.1167 107.113 42.1868 106.903C42.7834 105.224 47.241 95.1504 47.3462 95.2197C47.4163 95.29 47.6621 98.1582 47.9077 101.586ZM98.2021 107.113C98.0618 107.253 92.2004 107.987 92.0952 107.918C92.0601 107.848 92.9023 95.71 93.0076 95.0449C93.0076 94.9404 94.2009 97.5986 95.675 100.957C97.114 104.314 98.2371 107.078 98.2021 107.113ZM72.897 120.125L74.9326 121.454L81.3555 121.56L87.7432 121.664L87.7432 124.463L87.7432 127.227L70.1946 127.227L52.6458 127.227L52.6458 124.463L52.6458 121.664L59.0686 121.56L65.4563 121.454L67.7375 119.985C69.0012 119.146 70.2295 118.552 70.4402 118.656C70.6858 118.727 71.8088 119.391 72.897 120.125ZM107.924 135.132C128.561 140.903 130.878 141.777 134.914 145.485C137.897 148.179 138.424 149.193 138.143 151.502C137.441 157.554 131.334 162.976 123.191 164.829C120.734 165.389 110.556 166.019 110.556 165.634C110.556 165.528 110.942 164.374 111.434 163.115C112.978 158.987 112.557 155.665 110.1 152.342L109.363 151.362L110.767 149.998C112.101 148.738 114.382 147.864 116.347 147.864C116.733 147.864 116.874 147.444 116.874 146.465C116.874 144.821 116.523 144.751 113.364 145.556C111.469 146.045 111.434 146.045 110.346 145.065C109.082 143.981 108.345 143.876 98.553 143.457C95.7454 143.352 91.2529 142.967 88.5503 142.652C85.532 142.268 83.3208 142.128 82.6541 142.303C82.0574 142.478 80.5833 143.632 79.3198 144.891C77.8105 146.395 76.7927 147.164 76.2312 147.164C75.7749 147.164 67.2815 145.66 57.3489 143.842L39.2739 140.483L31.1313 141.393C19.3035 142.688 20.3564 142.407 20.3564 144.086L20.3564 145.45L22.2517 145.24L24.147 144.996L23.4099 147.024C22.8833 148.494 22.6729 149.998 22.6729 152.236C22.6377 155.175 22.708 155.56 23.9363 157.938L25.2349 160.526L22.708 160.282C18.4612 159.897 17.5486 159.547 10.7046 156.015C3.50977 152.307 2.63232 151.537 2.94824 149.333C3.15869 147.934 4.35205 146.465 7.05444 144.331C11.1257 141.043 11.8279 140.798 31.6577 135.271L50.3645 130.095L70.019 130.06L89.6733 130.024L107.924 135.132ZM57.2085 146.64C67.106 148.459 75.8452 149.963 76.5823 149.963C77.8105 149.963 78.2668 149.683 80.7236 147.34C82.9348 145.24 83.6719 144.716 84.3035 144.855C86.655 145.381 95.0784 146.15 101.22 146.43C105.362 146.64 108.345 146.92 108.591 147.164C109.573 148.144 108.205 148.738 100.869 150.522C90.0596 153.181 84.0579 154.335 72.5811 155.874C52.3301 158.638 44.8191 159.478 34.9919 160.142C28.0779 160.562 28.3936 160.701 26.5686 156.994C25.6211 155.07 25.4456 154.301 25.4456 152.236C25.4456 149.788 26.2527 146.57 27.2004 145.275C27.6216 144.751 28.6746 144.506 32.8862 144.017C35.729 143.667 38.3262 143.387 38.6421 143.352C38.958 143.352 47.311 144.821 57.2085 146.64ZM108.977 155.77C110.03 157.974 109.258 162.835 107.468 165.004L106.871 165.773L92.4812 165.389C84.5493 165.179 73.634 164.829 68.1938 164.619L58.2615 164.27L46.6792 166.753C39.9758 168.223 34.7112 169.167 34.2197 169.062C33.2722 168.816 32.8159 167.803 33.1318 166.578C33.3423 165.809 34.0093 165.494 38.8877 163.989C43.626 162.485 45.2754 162.136 50.7156 161.506C73.634 158.883 88.1643 156.574 100.378 153.531L105.818 152.167L107.117 153.391C107.854 154.091 108.661 155.14 108.977 155.77Z" fill="#FFFFFF" fill-opacity="1.000000" fill-rule="nonzero"/>
</svg>
